<mxGraphModel dx="1845" dy="871" grid="1" gridSize="10" guides="1" tooltips="1" connect="1" arrows="1" fold="1" page="1" pageScale="1" pageWidth="827" pageHeight="1169" math="0" shadow="0"><root><mxCell id="0"/><mxCell id="1" parent="0"/><mxCell id="ce9yNWu1MkIZ7jeg0d4W-1" value="&lt;font style=&quot;font-size: 36px;&quot;&gt;/&lt;/font&gt;" style="rounded=1;whiteSpace=wrap;html=1;fillColor=#BCE856;strokeColor=none;" parent="1" vertex="1"><mxGeometry x="-210" y="690" width="120" height="60" as="geometry"/></mxCell><mxCell id="ce9yNWu1MkIZ7jeg0d4W-2" value="&lt;font style=&quot;font-size: 18px;&quot;&gt;Directorio RAIZ&lt;/font&gt;" style="text;html=1;strokeColor=#bce856;fillColor=none;align=center;verticalAlign=middle;whiteSpace=wrap;rounded=1;" parent="1" vertex="1"><mxGeometry x="-210" y="740" width="120" height="70" as="geometry"/></mxCell><mxCell id="ce9yNWu1MkIZ7jeg0d4W-3" value="&lt;font style=&quot;font-size: 36px;&quot;&gt;/bin&lt;/font&gt;" style="rounded=1;whiteSpace=wrap;html=1;fillColor=#FF4D4D;strokeColor=none;" parent="1" vertex="1"><mxGeometry x="294" y="40" width="120" height="60" as="geometry"/></mxCell><mxCell id="ce9yNWu1MkIZ7jeg0d4W-4" value="&lt;font style=&quot;font-size: 36px;&quot;&gt;/boot&lt;/font&gt;" style="rounded=1;whiteSpace=wrap;html=1;fillColor=#FFCA6E;strokeColor=none;" parent="1" vertex="1"><mxGeometry x="296" y="130" width="120" height="60" as="geometry"/></mxCell><mxCell id="ce9yNWu1MkIZ7jeg0d4W-5" value="&lt;font style=&quot;font-size: 36px;&quot;&gt;/dev&lt;br&gt;&lt;/font&gt;" style="rounded=1;whiteSpace=wrap;html=1;fillColor=#FFE97D;strokeColor=none;" parent="1" vertex="1"><mxGeometry x="294" y="220" width="120" height="60" as="geometry"/></mxCell><mxCell id="ce9yNWu1MkIZ7jeg0d4W-6" value="&lt;font style=&quot;font-size: 36px;&quot;&gt;/etc&lt;/font&gt;" style="rounded=1;whiteSpace=wrap;html=1;fillColor=#E4FF7A;strokeColor=none;" parent="1" vertex="1"><mxGeometry x="294" y="310" width="120" height="60" as="geometry"/></mxCell><mxCell id="ce9yNWu1MkIZ7jeg0d4W-7" value="&lt;font style=&quot;font-size: 36px;&quot;&gt;/home&lt;/font&gt;" style="rounded=1;whiteSpace=wrap;html=1;fillColor=#CDFF82;strokeColor=none;" parent="1" vertex="1"><mxGeometry x="294" y="400" width="120" height="60" as="geometry"/></mxCell><mxCell id="ce9yNWu1MkIZ7jeg0d4W-8" value="&lt;font style=&quot;font-size: 36px;&quot;&gt;/lib&lt;br&gt;/lib64&lt;br&gt;&lt;/font&gt;" style="rounded=1;whiteSpace=wrap;html=1;fillColor=#A3FF8C;strokeColor=none;" parent="1" vertex="1"><mxGeometry x="294" y="490" width="120" height="90" as="geometry"/></mxCell><mxCell id="ce9yNWu1MkIZ7jeg0d4W-9" value="&lt;font style=&quot;font-size: 36px;&quot;&gt;/media&lt;/font&gt;" style="rounded=1;whiteSpace=wrap;html=1;fillColor=#75FF75;strokeColor=none;" parent="1" vertex="1"><mxGeometry x="294" y="610" width="120" height="60" as="geometry"/></mxCell><mxCell id="ce9yNWu1MkIZ7jeg0d4W-10" value="&lt;font style=&quot;font-size: 36px;&quot;&gt;/mnt&lt;/font&gt;" style="rounded=1;whiteSpace=wrap;html=1;fillColor=#61FFA0;strokeColor=none;" parent="1" vertex="1"><mxGeometry x="294" y="700" width="120" height="60" as="geometry"/></mxCell><mxCell id="ce9yNWu1MkIZ7jeg0d4W-11" value="&lt;font style=&quot;font-size: 36px;&quot;&gt;/opt&lt;/font&gt;" style="rounded=1;whiteSpace=wrap;html=1;fillColor=#8CFFD5;strokeColor=none;" parent="1" vertex="1"><mxGeometry x="294" y="790" width="120" height="60" as="geometry"/></mxCell><mxCell id="ce9yNWu1MkIZ7jeg0d4W-12" value="&lt;font style=&quot;font-size: 36px;&quot;&gt;/sbin&lt;/font&gt;" style="rounded=1;whiteSpace=wrap;html=1;fillColor=#94FFFB;strokeColor=none;" parent="1" vertex="1"><mxGeometry x="294" y="880" width="120" height="60" as="geometry"/></mxCell><mxCell id="ce9yNWu1MkIZ7jeg0d4W-13" value="&lt;font style=&quot;font-size: 36px;&quot;&gt;/srv&lt;/font&gt;" style="rounded=1;whiteSpace=wrap;html=1;fillColor=#3B9DFF;strokeColor=none;" parent="1" vertex="1"><mxGeometry x="294" y="970" width="120" height="60" as="geometry"/></mxCell><mxCell id="ce9yNWu1MkIZ7jeg0d4W-14" value="&lt;font style=&quot;font-size: 36px;&quot;&gt;/tmp&lt;/font&gt;" style="rounded=1;whiteSpace=wrap;html=1;fillColor=#6B93FF;strokeColor=none;" parent="1" vertex="1"><mxGeometry x="294" y="1060" width="120" height="60" as="geometry"/></mxCell><mxCell id="ce9yNWu1MkIZ7jeg0d4W-15" value="&lt;span style=&quot;font-size: 36px;&quot;&gt;/usr&lt;/span&gt;" style="rounded=1;whiteSpace=wrap;html=1;fillColor=#7570FF;strokeColor=none;" parent="1" vertex="1"><mxGeometry x="294" y="1150" width="120" height="60" as="geometry"/></mxCell><mxCell id="ce9yNWu1MkIZ7jeg0d4W-16" value="&lt;span style=&quot;font-size: 36px;&quot;&gt;/var&lt;/span&gt;" style="rounded=1;whiteSpace=wrap;html=1;fillColor=#BA61FF;strokeColor=none;" parent="1" vertex="1"><mxGeometry x="294" y="1240" width="120" height="60" as="geometry"/></mxCell><mxCell id="ce9yNWu1MkIZ7jeg0d4W-17" value="&lt;span style=&quot;font-size: 36px;&quot;&gt;/root&lt;/span&gt;" style="rounded=1;whiteSpace=wrap;html=1;fillColor=#EE82FF;strokeColor=none;" parent="1" vertex="1"><mxGeometry x="294" y="1330" width="120" height="60" as="geometry"/></mxCell><mxCell id="ce9yNWu1MkIZ7jeg0d4W-18" value="&lt;span style=&quot;font-size: 36px;&quot;&gt;/proc&lt;/span&gt;" style="rounded=1;whiteSpace=wrap;html=1;fillColor=#FF6B8E;strokeColor=none;" parent="1" vertex="1"><mxGeometry x="294" y="1420" width="120" height="60" as="geometry"/></mxCell><mxCell id="ce9yNWu1MkIZ7jeg0d4W-19" value="&lt;font style=&quot;font-size: 21px;&quot;&gt;Comandos binarios esenciales para los usuarios&lt;/font&gt;" style="text;html=1;strokeColor=#ff4d4d;fillColor=none;align=center;verticalAlign=middle;whiteSpace=wrap;rounded=1;" parent="1" vertex="1"><mxGeometry x="414" y="40" width="346" height="60" as="geometry"/></mxCell><mxCell id="ce9yNWu1MkIZ7jeg0d4W-21" value="&lt;span style=&quot;font-size: 21px;&quot;&gt;Archivos de dispositivos de hardware y virutales&lt;/span&gt;" style="text;html=1;strokeColor=#ffe97d;fillColor=none;align=center;verticalAlign=middle;whiteSpace=wrap;rounded=1;" parent="1" vertex="1"><mxGeometry x="414" y="220" width="346" height="60" as="geometry"/></mxCell><mxCell id="ce9yNWu1MkIZ7jeg0d4W-22" value="&lt;font style=&quot;font-size: 21px;&quot;&gt;Archivos de configuración del sistema y aplicaciones&lt;/font&gt;" style="text;html=1;strokeColor=#e4ff7a;fillColor=none;align=center;verticalAlign=middle;whiteSpace=wrap;rounded=1;" parent="1" vertex="1"><mxGeometry x="414" y="310" width="346" height="60" as="geometry"/></mxCell><mxCell id="ce9yNWu1MkIZ7jeg0d4W-23" value="&lt;span style=&quot;font-size: 21px;&quot;&gt;Directorio principal de los usuarios, cada usuario tiene su propio directorio&lt;/span&gt;" style="text;html=1;strokeColor=#cdff82;fillColor=none;align=center;verticalAlign=middle;whiteSpace=wrap;rounded=1;" parent="1" vertex="1"><mxGeometry x="414" y="390" width="346" height="80" as="geometry"/></mxCell><mxCell id="ce9yNWu1MkIZ7jeg0d4W-24" value="&lt;font style=&quot;font-size: 21px;&quot;&gt;Librerías necesarias para el sistema&lt;/font&gt;" style="text;html=1;strokeColor=#a3ff8c;fillColor=none;align=center;verticalAlign=middle;whiteSpace=wrap;rounded=1;" parent="1" vertex="1"><mxGeometry x="414" y="505" width="346" height="60" as="geometry"/></mxCell><mxCell id="ce9yNWu1MkIZ7jeg0d4W-25" value="&lt;font style=&quot;font-size: 21px;&quot;&gt;Punto de montaje para medios removibles&lt;/font&gt;" style="text;html=1;strokeColor=#75ff75;fillColor=none;align=center;verticalAlign=middle;whiteSpace=wrap;rounded=1;glass=0;" parent="1" vertex="1"><mxGeometry x="414" y="610" width="346" height="60" as="geometry"/></mxCell><mxCell id="ce9yNWu1MkIZ7jeg0d4W-26" value="&lt;font style=&quot;font-size: 21px;&quot;&gt;Punto de montaje temporal para sistemas de archivos&lt;/font&gt;" style="text;html=1;strokeColor=#61ffa0;fillColor=none;align=center;verticalAlign=middle;whiteSpace=wrap;rounded=1;" parent="1" vertex="1"><mxGeometry x="414" y="700" width="346" height="60" as="geometry"/></mxCell><mxCell id="ce9yNWu1MkIZ7jeg0d4W-27" value="&lt;span style=&quot;font-size: 21px;&quot;&gt;Directorio para instalar software de terceros&lt;/span&gt;" style="text;html=1;strokeColor=#8cffd5;fillColor=none;align=center;verticalAlign=middle;whiteSpace=wrap;rounded=1;" parent="1" vertex="1"><mxGeometry x="414" y="790" width="346" height="60" as="geometry"/></mxCell><mxCell id="ce9yNWu1MkIZ7jeg0d4W-28" value="&lt;font style=&quot;font-size: 21px;&quot;&gt;Binarios del sistema&lt;/font&gt;" style="text;html=1;strokeColor=#94fffb;fillColor=none;align=center;verticalAlign=middle;whiteSpace=wrap;rounded=1;" parent="1" vertex="1"><mxGeometry x="414" y="880" width="346" height="60" as="geometry"/></mxCell><mxCell id="ce9yNWu1MkIZ7jeg0d4W-29" value="&lt;span style=&quot;font-size: 21px;&quot;&gt;Directorio para almacenar datos y archivos de servicio específicos del sistema&lt;/span&gt;" style="text;html=1;strokeColor=#3b9dff;fillColor=none;align=center;verticalAlign=middle;whiteSpace=wrap;rounded=1;" parent="1" vertex="1"><mxGeometry x="414" y="960" width="346" height="80" as="geometry"/></mxCell><mxCell id="ce9yNWu1MkIZ7jeg0d4W-30" value="&lt;font style=&quot;font-size: 21px;&quot;&gt;Directorio para almacenar ficheros temporales&lt;/font&gt;" style="text;html=1;strokeColor=#6b93ff;fillColor=none;align=center;verticalAlign=middle;whiteSpace=wrap;rounded=1;" parent="1" vertex="1"><mxGeometry x="414" y="1060" width="346" height="60" as="geometry"/></mxCell><mxCell id="ce9yNWu1MkIZ7jeg0d4W-31" value="&lt;span style=&quot;font-size: 21px;&quot;&gt;Contiene archivos y subdirectorios relacionados con el software del sistema no esencial&lt;/span&gt;" style="text;html=1;strokeColor=#7570ff;fillColor=none;align=center;verticalAlign=middle;whiteSpace=wrap;rounded=1;" parent="1" vertex="1"><mxGeometry x="414" y="1139.5" width="346" height="81" as="geometry"/></mxCell><mxCell id="ce9yNWu1MkIZ7jeg0d4W-32" value="&lt;font style=&quot;font-size: 21px;&quot;&gt;Contiene archivos variables, logs, bases de datos, spools&lt;/font&gt;" style="text;html=1;strokeColor=#ba61ff;fillColor=none;align=center;verticalAlign=middle;whiteSpace=wrap;rounded=1;" parent="1" vertex="1"><mxGeometry x="414" y="1240" width="346" height="60" as="geometry"/></mxCell><mxCell id="ce9yNWu1MkIZ7jeg0d4W-33" value="&lt;font style=&quot;font-size: 21px;&quot;&gt;Directorio 'home' del usuario 'root'&lt;/font&gt;" style="text;html=1;strokeColor=#ee82ff;fillColor=none;align=center;verticalAlign=middle;whiteSpace=wrap;rounded=1;" parent="1" vertex="1"><mxGeometry x="414" y="1330" width="346" height="60" as="geometry"/></mxCell><mxCell id="ce9yNWu1MkIZ7jeg0d4W-34" value="&lt;font style=&quot;font-size: 21px;&quot;&gt;Documentación del sistema de archivos virtual del Kernel y las condiciones de los procesos en archivos de texto&lt;/font&gt;" style="text;html=1;strokeColor=#ff6b8e;fillColor=none;align=center;verticalAlign=middle;whiteSpace=wrap;rounded=1;" parent="1" vertex="1"><mxGeometry x="414" y="1400" width="346" height="100" as="geometry"/></mxCell><mxCell id="ce9yNWu1MkIZ7jeg0d4W-35" value="&lt;font style=&quot;font-size: 21px;&quot;&gt;Archivos necesarios para el arranque del sistema&lt;/font&gt;" style="text;html=1;strokeColor=#ffca6e;fillColor=none;align=center;verticalAlign=middle;whiteSpace=wrap;rounded=1;" parent="1" vertex="1"><mxGeometry x="416" y="130" width="344" height="60" as="geometry"/></mxCell><mxCell id="ce9yNWu1MkIZ7jeg0d4W-36" value="&lt;font style=&quot;font-size: 50px;&quot;&gt;*&lt;/font&gt;" style="text;html=1;strokeColor=none;fillColor=none;align=center;verticalAlign=middle;whiteSpace=wrap;rounded=0;fontSize=12;fontFamily=Helvetica;fontColor=none;" parent="1" vertex="1"><mxGeometry x="370" y="981" width="60" height="30" as="geometry"/></mxCell><mxCell id="ce9yNWu1MkIZ7jeg0d4W-39" value="" style="endArrow=none;html=1;rounded=0;fontFamily=Helvetica;fontSize=12;fontColor=none;entryX=0;entryY=0.5;entryDx=0;entryDy=0;" parent="1" target="ce9yNWu1MkIZ7jeg0d4W-3" edge="1"><mxGeometry width="50" height="50" relative="1" as="geometry"><mxPoint x="-90" y="720" as="sourcePoint"/><mxPoint x="-40" y="670" as="targetPoint"/></mxGeometry></mxCell><mxCell id="ce9yNWu1MkIZ7jeg0d4W-40" value="" style="endArrow=none;html=1;rounded=0;fontFamily=Helvetica;fontSize=12;fontColor=none;entryX=0;entryY=0.5;entryDx=0;entryDy=0;" parent="1" target="ce9yNWu1MkIZ7jeg0d4W-4" edge="1"><mxGeometry width="50" height="50" relative="1" as="geometry"><mxPoint x="-90" y="720" as="sourcePoint"/><mxPoint x="304" y="80" as="targetPoint"/></mxGeometry></mxCell><mxCell id="ce9yNWu1MkIZ7jeg0d4W-41" value="" style="endArrow=none;html=1;rounded=0;fontFamily=Helvetica;fontSize=12;fontColor=none;entryX=0;entryY=0.5;entryDx=0;entryDy=0;" parent="1" target="ce9yNWu1MkIZ7jeg0d4W-5" edge="1"><mxGeometry width="50" height="50" relative="1" as="geometry"><mxPoint x="-90" y="720" as="sourcePoint"/><mxPoint x="306" y="170" as="targetPoint"/></mxGeometry></mxCell><mxCell id="ce9yNWu1MkIZ7jeg0d4W-42" value="" style="endArrow=none;html=1;rounded=0;fontFamily=Helvetica;fontSize=12;fontColor=none;entryX=0;entryY=0.5;entryDx=0;entryDy=0;" parent="1" target="ce9yNWu1MkIZ7jeg0d4W-6" edge="1"><mxGeometry width="50" height="50" relative="1" as="geometry"><mxPoint x="-90" y="720" as="sourcePoint"/><mxPoint x="304" y="260" as="targetPoint"/></mxGeometry></mxCell><mxCell id="ce9yNWu1MkIZ7jeg0d4W-43" value="" style="endArrow=none;html=1;rounded=0;fontFamily=Helvetica;fontSize=12;fontColor=none;entryX=0;entryY=0.5;entryDx=0;entryDy=0;" parent="1" target="ce9yNWu1MkIZ7jeg0d4W-7" edge="1"><mxGeometry width="50" height="50" relative="1" as="geometry"><mxPoint x="-80" y="710" as="sourcePoint"/><mxPoint x="304" y="350" as="targetPoint"/></mxGeometry></mxCell><mxCell id="ce9yNWu1MkIZ7jeg0d4W-44" value="" style="endArrow=none;html=1;rounded=0;fontFamily=Helvetica;fontSize=12;fontColor=none;entryX=0;entryY=0.5;entryDx=0;entryDy=0;" parent="1" target="ce9yNWu1MkIZ7jeg0d4W-8" edge="1"><mxGeometry width="50" height="50" relative="1" as="geometry"><mxPoint x="-90" y="720" as="sourcePoint"/><mxPoint x="304" y="440" as="targetPoint"/></mxGeometry></mxCell><mxCell id="ce9yNWu1MkIZ7jeg0d4W-45" value="" style="endArrow=none;html=1;rounded=0;fontFamily=Helvetica;fontSize=12;fontColor=none;entryX=0;entryY=0.5;entryDx=0;entryDy=0;exitX=1;exitY=0.5;exitDx=0;exitDy=0;" parent="1" source="ce9yNWu1MkIZ7jeg0d4W-1" target="ce9yNWu1MkIZ7jeg0d4W-9" edge="1"><mxGeometry width="50" height="50" relative="1" as="geometry"><mxPoint x="-80" y="720" as="sourcePoint"/><mxPoint x="304" y="545" as="targetPoint"/></mxGeometry></mxCell><mxCell id="ce9yNWu1MkIZ7jeg0d4W-46" value="" style="endArrow=none;html=1;rounded=0;fontFamily=Helvetica;fontSize=12;fontColor=none;entryX=0;entryY=0.5;entryDx=0;entryDy=0;exitX=1;exitY=0.5;exitDx=0;exitDy=0;" parent="1" source="ce9yNWu1MkIZ7jeg0d4W-1" target="ce9yNWu1MkIZ7jeg0d4W-10" edge="1"><mxGeometry width="50" height="50" relative="1" as="geometry"><mxPoint x="-30" y="780" as="sourcePoint"/><mxPoint x="304" y="650" as="targetPoint"/></mxGeometry></mxCell><mxCell id="ce9yNWu1MkIZ7jeg0d4W-47" value="" style="endArrow=none;html=1;rounded=0;fontFamily=Helvetica;fontSize=12;fontColor=none;entryX=0;entryY=0.5;entryDx=0;entryDy=0;" parent="1" target="ce9yNWu1MkIZ7jeg0d4W-11" edge="1"><mxGeometry width="50" height="50" relative="1" as="geometry"><mxPoint x="-90" y="720" as="sourcePoint"/><mxPoint x="304" y="740" as="targetPoint"/></mxGeometry></mxCell><mxCell id="ce9yNWu1MkIZ7jeg0d4W-48" value="" style="endArrow=none;html=1;rounded=0;fontFamily=Helvetica;fontSize=12;fontColor=none;entryX=0;entryY=0.5;entryDx=0;entryDy=0;" parent="1" target="ce9yNWu1MkIZ7jeg0d4W-12" edge="1"><mxGeometry width="50" height="50" relative="1" as="geometry"><mxPoint x="-90" y="720" as="sourcePoint"/><mxPoint x="304" y="830" as="targetPoint"/></mxGeometry></mxCell><mxCell id="ce9yNWu1MkIZ7jeg0d4W-49" value="" style="endArrow=none;html=1;rounded=0;fontFamily=Helvetica;fontSize=12;fontColor=none;entryX=0;entryY=0.5;entryDx=0;entryDy=0;exitX=1;exitY=0.5;exitDx=0;exitDy=0;" parent="1" source="ce9yNWu1MkIZ7jeg0d4W-1" target="ce9yNWu1MkIZ7jeg0d4W-13" edge="1"><mxGeometry width="50" height="50" relative="1" as="geometry"><mxPoint y="810" as="sourcePoint"/><mxPoint x="250" y="1040" as="targetPoint"/></mxGeometry></mxCell><mxCell id="ce9yNWu1MkIZ7jeg0d4W-50" value="" style="endArrow=none;html=1;rounded=0;fontFamily=Helvetica;fontSize=12;fontColor=none;entryX=0;entryY=0.5;entryDx=0;entryDy=0;exitX=1;exitY=0.5;exitDx=0;exitDy=0;" parent="1" source="ce9yNWu1MkIZ7jeg0d4W-1" target="ce9yNWu1MkIZ7jeg0d4W-14" edge="1"><mxGeometry width="50" height="50" relative="1" as="geometry"><mxPoint x="10" y="820" as="sourcePoint"/><mxPoint x="304" y="1010" as="targetPoint"/></mxGeometry></mxCell><mxCell id="ce9yNWu1MkIZ7jeg0d4W-51" value="" style="endArrow=none;html=1;rounded=0;fontFamily=Helvetica;fontSize=12;fontColor=none;entryX=0;entryY=0.5;entryDx=0;entryDy=0;" parent="1" target="ce9yNWu1MkIZ7jeg0d4W-15" edge="1"><mxGeometry width="50" height="50" relative="1" as="geometry"><mxPoint x="-90" y="720" as="sourcePoint"/><mxPoint x="304" y="1100" as="targetPoint"/></mxGeometry></mxCell><mxCell id="ce9yNWu1MkIZ7jeg0d4W-52" value="" style="endArrow=none;html=1;rounded=0;fontFamily=Helvetica;fontSize=12;fontColor=none;entryX=0;entryY=0.5;entryDx=0;entryDy=0;" parent="1" target="ce9yNWu1MkIZ7jeg0d4W-16" edge="1"><mxGeometry width="50" height="50" relative="1" as="geometry"><mxPoint x="-90" y="720" as="sourcePoint"/><mxPoint x="304" y="1190" as="targetPoint"/></mxGeometry></mxCell><mxCell id="ce9yNWu1MkIZ7jeg0d4W-53" value="" style="endArrow=none;html=1;rounded=0;fontFamily=Helvetica;fontSize=12;fontColor=none;entryX=0;entryY=0.5;entryDx=0;entryDy=0;" parent="1" target="ce9yNWu1MkIZ7jeg0d4W-17" edge="1"><mxGeometry width="50" height="50" relative="1" as="geometry"><mxPoint x="-90" y="720" as="sourcePoint"/><mxPoint x="304" y="1280" as="targetPoint"/></mxGeometry></mxCell><mxCell id="ce9yNWu1MkIZ7jeg0d4W-54" value="" style="endArrow=none;html=1;rounded=0;fontFamily=Helvetica;fontSize=12;fontColor=none;entryX=0;entryY=0.5;entryDx=0;entryDy=0;exitX=1;exitY=0.5;exitDx=0;exitDy=0;" parent="1" source="ce9yNWu1MkIZ7jeg0d4W-1" target="ce9yNWu1MkIZ7jeg0d4W-18" edge="1"><mxGeometry width="50" height="50" relative="1" as="geometry"><mxPoint x="50" y="860" as="sourcePoint"/><mxPoint x="304" y="1370" as="targetPoint"/></mxGeometry></mxCell><mxCell id="ce9yNWu1MkIZ7jeg0d4W-55" value="&lt;h2 style=&quot;line-height: 1.34; margin: 0px;&quot; data-ved=&quot;2ahUKEwiJkMjXjL7_AhXSUaQEHQtZBFgQ3B0oAXoECE4QEQ&quot; data-attrid=&quot;title&quot; data-local-attribute=&quot;d3bn&quot; class=&quot;qrShPb pXs6bb PZPZlf q8U8x aTI8gc hNKfZe&quot;&gt;&lt;font style=&quot;font-size: 43px;&quot;&gt;&lt;font color=&quot;#91e141&quot;&gt;F&lt;/font&gt;&lt;span style=&quot;font-weight: 500;&quot;&gt;ilesystem &lt;/span&gt;&lt;font color=&quot;#1cabe9&quot;&gt;H&lt;/font&gt;&lt;span style=&quot;font-weight: 500;&quot;&gt;ierarchy &lt;/span&gt;&lt;font color=&quot;#ba61ff&quot;&gt;S&lt;/font&gt;&lt;span style=&quot;font-weight: 500;&quot;&gt;tandard&lt;/span&gt;&lt;/font&gt;&lt;/h2&gt;" style="text;html=1;strokeColor=none;fillColor=none;align=left;verticalAlign=middle;whiteSpace=wrap;rounded=0;fontSize=12;fontFamily=Helvetica;fontColor=none;" parent="1" vertex="1"><mxGeometry x="-140" y="140" width="220" height="205" as="geometry"/></mxCell><mxCell id="uF7dfcJohwgiFRLAOUHG-1" value="" style="shape=image;verticalLabelPosition=bottom;labelBackgroundColor=default;verticalAlign=top;aspect=fixed;imageAspect=0;image=data:image/png,iVBORw0KGgoAAAANSUhEUgAACHQAAAOSCAYAAAAfrBVgAAAACXBIWXMAAC4jAAAuIwF4pT92AAAAGXRFWHRTb2Z0d2FyZQBBZG9iZSBJbWFnZVJlYWR5ccllPAAAcTJJREFUeNrs3d1RW9m2huE1Tu17yAAysDOAE4FPBpCBFcI8GSgEOQN3BBtnsDsDkwGOYO4lWk1bLLD50c+Yaz5PlWpe67O6r94aRK11AAAAAAAAAAAgj/8xAQAAAAAAAABALoIOAAAAAAAAAIBkBB0AAAAAAAAAAMkIOgAAAAAAAAAAkhF0AAAAAAAAAAAkI+gAAAAAAAAAAEhG0AEAAAAAAAAAkIygAwAAAAAAAAAgGUEHAAAAAAAAAEAygg4AAAAAAAAAgGQEHQAAAAAAAAAAyQg6AAAAAAAAAACSEXQAAAAAAAAAACQj6AAAAAAAAAAASEbQAQAAAAAAAACQjKADAAAAAAAAACAZQQcAAAAAAAAAQDKCDgAAAAAAAACAZAQdAAAAAAAAAADJCDoAAAAAAAAAAJIRdAAAAAAAAAAAJCPoAAAAAAAAAABIRtABAAAAAAAAAJCMoAMAAAAAAAAAIBlBBwAAAAAAAABAMoIOAAAAAAAAAIBkBB0AAAAAAAAAAMkIOgAAAAAAAAAAkhF0AAAAAAAAAAAkI+gAAAAAAAAAAEhG0AEAAAAAAAAAkIygAwAAAAAAAAAgGUEHAAAAAAAAAEAygg4AAAAAAAAAgGQEHQAAAAAAAAAAyQg6AAAAAAAAAACSEXQAAAAAAAAAACQj6AAAAAAAAAAASEbQAQAAAAAAAACQjKADAAAAAAAAACAZQQcAAAAAAAAAQDKCDgAAAAAAAACAZAQdAAAAAAAAAADJCDoAAAAAAAAAAJIRdAAAAAAAAAAAJCPoAAAAAAAAAABIRtABAAAAAAAAAJCMoAMAAAAAAAAAIBlBBwAAAAAAAABAMoIOAAAAAAAAAIBkBB0AAAAAAAAAAMkIOgAAAAAAAAAAkhF0AAAAAAAAAAAkI+gAAAAAAAAAAEhG0AEAAAAAAAAAkIygAwAAAAAAAAAgGUEHAAAAAAAAAEAygg4AAAAAAAAAgGQEHQAAAAAAAAAAyQg6AAAAAAAAAACSEXQAAAAAAAAAACQj6AAAAAAAAAAASEbQAQAAAAAAAACQjKADAAAAAAAAACAZQQcAAAAAAAAAQDKCDgAAAAAAAACAZAQdAAAAAAAAAADJCDoAAAAAAAAAAJIRdAAAAAAAAAAAJCPoAAAAAAAAAABIRtABAAAAAAAAAJCMoAMAAAAAAAAAIBlBBwAAAAAAAABAMoIOAAAAAAAAAIBkBB0AAAAAAAAAAMkIOgAAAAAAAAAAkhF0AAAAAAAAAAAkI+gAAAAAAAAAAEhG0AEAAAAAAAAAkIygAwAAAAAAAAAgGUEHAAAAAAAAAEAygg4AAAAAAAAAgGQEHQAAAAAAAAAAyQg6AAAAAAAAAACSEXQAAAAAAAAAACQj6AAAAAAAAAAASEbQAQAAAAAAAACQjKADAAAAAAAAACAZQQcAAAAAAAAAQDKCDgAAAAAAAACAZAQdAAAAAAAAAADJCDoAAAAAAAAAAJIRdAAAAAAAAAAAJCPoAAAAAAAAAABIRtABAAAAAAAAAJCMoAMAAAAAAAAAIBlBBwAAAAAAAABAMoIOAAAAAAAAAIBkBB0AAAAAAAAAAMkIOgAAAAAAAAAAkhF0AAAAAAAAAAAkI+gAAAAAAAAAAEhG0AEAAAAAAAAAkIygAwAAAAAAAAAgGUEHAAAAAAAAAEAygg4AAAAAAAAAgGQEHQAAAAAAAAAAyQg6AAAAAAAAAACSEXQAAAAAAAAAACQj6AAAAAAAAAAASEbQAQAAAAAAAACQjKADAAAAAAAAACAZQQcAAAAAAAAAQDKCDgAAAAAAAACAZAQdAAAAAAAAAADJCDoAAAAAAAAAAJIRdAAAAAAAAAAAJCPoAAAAAAAAAABIRtABAAAAAAAAAJCMoAMAAAAAAAAAIBlBBwAAAAAAAABAMoIOAAAAAAAAAIBkBB0AAAAAAAAAAMkIOgAAAAAAAAAAkhF0AAAAAAAAAAAkI+gAAAAAAAAAAEhG0AEAAAAAAAAAkIygAwAAAAAAAAAgGUEHAAAAAAAAAEAygg4AAAAAAAAAgGQEHQAAAAAAAAAAyQg6AAAAAAAAAACSEXQAAAAAAAAAACQj6AAAAAAAAAAASOZfc/kiEXE6Ph/n/I9Va73xkwUAAAAAAACA+fvXjL7LOub498z/vcJPFo70H1/EZQf/j3mJ/xWXAQAAAAAAwP75kysAL7Mywb1/R0R99LkxCwAAAAAAAOyWoAPgNyLienzOLAEAAAAAAAAciqAD4PeKCQAAAAAAAIBDEnQA/ILrHAAAAAAAAMAxCDoAnhERp+OztAQAAAAAAABwaIIOgOctxs+JGQAAAAAAAIBDE3QAPGFznWNhCQAAAAAAAOAYBB0AT3OdAwAAAAAAADgaQQfAIxFxPrjOAQAAAAAAAByRoANgqgyucwAAAAAAAABHJOgA+MnmOseVJQAAAAAAAIBjEnQAbCsmAAAAAAAAAI5N0AGwEREfB9c5AAAAAAAAgAQEHQD/WJoAAAAAAAAAyEDQATDcX+e4HJ8LSwAAAAAAAAAZCDoA/lJMAAAAAAAAAGQh6AC65zoHAAAAAAAAkI2gA2AYViYAAAAAAAAAMhF0AF2LiOvxObMEAAAAAAAAkImgA+hdMQEAAAAAAACQjaAD6JbrHAAAAAAAAEBWgg6gSxFxOj5LSwAAAAAAAAAZCTqAXi3Gz4kZAAAAAAAAgIwEHUB3Ntc5FpYAAAAAAAAAshJ0AD1ynQMAAAAAAABITdABdCUizgfXOQAAAAAAAIDkBB1Ab8rgOgcAAAAAAACQnKAD6MbmOseVJQAAAAAAAIDsBB1AT4oJAAAAAAAAgBYIOoAuRMTHwXUOAAAAAAAAoBGCDqAXSxMAAAAAAAAArRB0ALMXEZfjc2EJAAAAAAAAoBWCDqAHxQQAAAAAAABASwQdwKy5zgEAAAAAAAC0SNABzN3KBAAAAAAAAEBrBB3AbEXE9ficWQIAAAAAAABojaADmLNiAgAAAAAAAKBFgg5gllznAAAAAAAAAFom6ABmJyJOx2dpCQAAAAAAAKBVgg5gjhbj58QMAAAAAAAAQKsEHcCsbK5zLCwBAAAAAAAAtEzQAcyN6xwAAAAAAABA8wQdwGxExPngOgcAAAAAAAAwA4IOYE7K4DoHAAAAAAAAMAOCDmAWNtc5riwBAAAAAAAAzIGgA5iLYgIAAAAAAABgLgQdQPMi4uPgOgcAAAAAAAAwI4IOYA6WJgAAAAAAAADmRNABNC0iLsfnwhIAAAAAAADAnAg6gNYVEwAAAAAAAABzI+gAmuU6BwAAAAAAADBXgg6gZSsTAAAAAAAAAHMk6ACaFBHX43NmCQAAAAAAAGCOBB1Aq4oJAAAAAAAAgLkSdADNcZ0DAAAAAAAAmDtBB9CUiDgdn6UlAAAAAAAAgDkTdACtWYyfEzMAAAAAAAAAcyboAJqxuc6xsAQAAAAAAAAwd4IOoCWucwAAAAAAAABdEHQATYiI88F1DgAAAAAAAKATgg6gFWVwnQMAAAAAAADohKADSG9znePKEgAAAAAAAEAvBB1AC4oJAAAAAAAAgJ4IOoDUIuLj4DoHAAAAAAAA0BlBB5Dd0gQAAAAAAABAbwQdQFoRcTk+F5YAAAAAAAAAeiPoADIrJgAAAAAAAAB6JOgAUnKdAwAAAAAAAOiZoAPIamUCAAAAAAAAoFeCDiCdiLgenzNLAAAAAAAAAL0SdAAZFRMAAAAAAAAAPRN0AKm4zgEAAAAAAAAg6AASiYjT8VlaAgAAAAAAAOidoAPIZDF+TswAAAAAAAAA9E7QAaSwuc6xsAQAAAAAAACAoAPIw3UOAAAAAAAAgA1BB3B0EXE+uM4BAAAAAAAA8EDQAWRQBtc5AAAAAAAAAB4IOoCj2lznuLIEAAAAAAAAwD8EHcCxFRMAAAAAAAAAbBN0AEcTER8H1zkAAAAAAAAAJgQdwDEtTQAAAAAAAAAwJegAjiIiLsfnwhIAAAAAAAAAU4IO4FiKCQAAAAAAAACeJugADs51DgAAAAAAAIBfE3QAx7A0AQAAAAAAAMDzBB3AQUXE9fh8sAQAAAAAAADA8wQdwKEVEwAAAAAAAAD8mqADOJjNdY4zSwAAAAAAAAD8mqADOIiIOB1c5wAAAAAAAAB4EUEHcCiLwXUOAAAAAAAAgBcRdAB7t7nOsbAEAAAAAAAAwMsIOoBDWMccJ2YAAAAAAAAAeBlBB7BXrnMAAAAAAAAAvJ6gA9i35eA6BwAAAAAAAMCrCDqAvYmI8/G5sgQAAAAAAADA6wg6gH0qJgAAAAAAAAB4PUEHsBeucwAAAAAAAAC8naAD2JeVCQAAAAAAAADeRtAB7FxEXI7PhSUAAAAAAAAA3kbQAexDMQEAAAAAAADA2wk6gJ1ynQMAAAAAAADg/QQdwK4tTQAAAAAAAADwPoIOYGci4np8PlgCAAAAAAAA4H0EHcAuFRMAAAAAAAAAvJ+gA9iJzXWOM0sAAAAAAAAAvJ+gA3i3iDgdXOcAAAAAAAAA2BlBB7ALi8F1DgAAAAAAAICdEXQA77K5zrGwBAAAAAAAAMDuCDqA91rHHCdmAAAAAAAAANgdQQfwZq5zAAAAAAAAAOyHoAN4j+XQ33WOH/7ZAQAAAAAAgH0TdABvEhHn43PV4Vdf+tcHAAAAAAAA9k3QAbxV6fR7r/zTAwAAAAAAAPsm6ABerePrHH/UWr/7BQAAAAAAAAD7JugA3mLV6ff251YAAAAAAACAgxB0AK8SEZfjc9HhV7+ttd74BQAAAAAAAACHIOgAXqv43gAAAAAAAAD7JegAXqzj6xw/xs9XvwAAAAAAAADgUAQdwGssO/3eX2utd/75AQAAAAAAgEMRdAAvEhHX4/Oh069f/AIAAAAAAACAQxJ0AC9VOv3e32qt3/3zAwAAAAAAAIck6AB+a3Od46zTr7/0CwAAAAAAAAAOTdAB/FJEnA79Xue4rbV+9SsAAAAAAAAADk3QAfzOYnCdAwAAAAAAAOCgBB3AszbXORadfv0f42flVwAAAAAAAAAcg6AD+JV1zHHS6Xf/Wmu98xMAAAAAAAAAjkHQATyp8+sca8WvAAAAAAAAADgWQQfwnOXQ73WOb7XW734CAAAAAAAAwLEIOoCJiDgfn6uOJyh+BQAAAAAAAMAxCTqAp5SOv/ttrfXGTwAAAAAAAAA4JkEHsMV1Dtc5AAAAAAAAgOMTdACPrTr+7j/Gz1c/AQAAAAAAAODYBB3Ag4i4HJ+LjidY1Vrv/BIAAAAAAACAYxN0AD8rnX//pZ8AAAAAAAAAkIGgA7jnOsfwpdb63S8BAAAAAAAAyEDQAfyt9+sUKz8BAAAAAAAAIAtBB7C+znE9Ph86nuBbrfXGLwEAAAAAAADIQtABrJXOv//KTwAAAAAAAADIRNABndtc5zjreILbWuvKLwEAAAAAAADIRNABHYuI08F1jpVfAgAAAAAAAJCNoAP6thj6vs7xY/ws/QwAAAAAAACAbAQd0KnNdY5F5zN8rbXe+TUAAAAAAAAA2Qg6oF/rmOOk8w2KnwEAAAAAAACQkaADOuQ6x70vtdbvfg0AAAAAAABARoIO6NNycJ1j5WcAAAAAAAAAZCXogM5ExPn4XHU+w7da641fAwAAAAAAAJCVoAP6U0zgOgcAAAAAAACQm6ADOuI6x73bWuvKrwEAAAAAAADITNABfVmZYFiaAAAAAAAAAMhO0AGdiIjL8bnofIYfg6gFAAAAAAAAaICgA/pRTDAsa613ZgAAAAAAAACyE3RAB1zneLAyAQAAAAAAANACQQf0YWmC4Uut9bsZAAAAAAAAgBYIOmDmIuJ6fD5Ywp+cAQAAAAAAANoh6ID5KyYYvrnOAQAAAAAAALRE0AEztrnOcWYJUQsAAAAAAADQFkEHzFREnA5ChrU/a603ZgAAAAAAAABaIuiA+VoMrnOsLU0AAAAAAAAAtEbQATO0uc6xsMRwW2tdmQEAAAAAAABojaAD5mkdc5yYwZ+cAQAAAAAAANok6ICZcZ3jwY/x89UMAAAAAAAAQIsEHTA/y8F1jvsdaq13ZgAAAAAAAABaJOiAGYmI8/G5ssT9dY6lGQAAAAAAAIBWCTpgXooJ7n11nQMAAAAAAABomaADZsJ1ji3FBAAAAAAAAEDLBB0wHysT3PtSa/1uBgAAAAAAAKBlgg6YgYi4HJ8LS9xbmgAAAAAAAABonaAD5qGY4N63Wut/zAAAAAAAAAC0TtABjXOdY0sxAQAAAAAAADAHgg5onz8x8pf1dY4bMwAAAAAAAABzIOiAhkXE9fh8sMQ9YQsAAAAAAAAwG4IOaFsxwb3bWutXMwAAAAAAAABzIeiARm2uc5xZ4l4xAQAAAAAAADAngg5oUEScDiKGv62vc6zMAAAAAAAAAMyJoAPatBhc5/jb0gQAAAAAAADA3Ag6oDGb6xwLS9z7MX5WZgAAAAAAAADmRtAB7VnHHCdmuLestd6ZAQAAAAAAAJgbQQc0xHWOLevrHP7cCgAAAAAAADBLgg5oyzpgcJ1js4XrHAAAAAAAAMBcCTqgERFxPj5XlniwMgEAAAAAAAAwV4IOaEcxwYMvtdbvZgAAAAAAAADmStABDXCdY6KYAAAAAAAAAJgzQQe0YWWCB65zAAAAAAAAALMn6IDkIuJyfC4s8aCYAAAAAAAAAJg7QQfkV0zw4A/XOQAAAAAAAIAeCDogMdc5JpYmAAAAAAAAAHog6IDcBAz/+FZrvTEDAAAAAAAA0ANBByQVEdfj88ESD4oJAAAAAAAAgF4IOiCvYoIHrnMAAAAAAAAAXRF0QEKb6xxnlnhQTAAAAAAAAAD0RNAByUTE6SBg+NmfrnMAAAAAAAAAvRF0QD6LwXWOny1NAAAAAAAAAPRG0AGJbK5zLCzx4LbWujIDAAAAAAAA0BtBB+SyjjlOzPCgmAAAAAAAAADokaADknCdY8J1DgAAAAAAAKBbgg7IowyuczzeAwAAAAAAAKBLgg5IICLOx+ezJR64zgEAAAAAAAB0TdABORQT2AMAAAAAAADgb4IOOLLNdY4rSzxwnQMAAAAAAADonqADjm9pAnsAAAAAAAAA/EzQAUcUEZfj88kSD36Mn5UZAAAAAAAAgN4JOuC4igm2LGutd2YAAAAAAAAAeifogCPZXOe4sMSD9XUOf24FAAAAAAAAYBB0wDEVE2xxnQMAAAAAAABgQ9ABRxAR14PrHD9znQMAAAAAAADgJ4IOOI5igi2ucwAAAAAAAAD8RNABB7a5znFmiQeucwAAAAAAAAA8IuiAwysm2OI6BwAAAAAAAMAjgg44oIgog+scP3OdAwAAAAAAAOAJgg44kIg4HZ+FJba4zgEAAAAAAADwBEEHHM465jgxwwPXOQAAAAAAAACeIeiAA3Cd40mucwAAAAAAAAA8Q9ABh1EG1zl+5joHAAAAAAAAwC8IOmDPIuJ8fD5bYovrHAAAAAAAAAC/IOiA/Ssm2OI6BwAAAAAAAMBvCDpgjzbXOa4sscV1DgAAAAAAAIDfEHTAfrlEsc11DgAAAAAAAIAXEHTAnkTE5fh8ssQW1zkAAAAAAAAAXkDQAftTTLDFdQ4AAAAAAACAFxJ0wB5srnNcWGKL6xwAAAAAAAAALyTogP0oJtjiOgcAAAAAAADAKwg6YMci4npwneMx1zkAAAAAAAAAXkHQAbtXTLDFdQ4AAAAAAACAVxJ0wA5trnOcWWKL6xwAAAAAAAAAryTogN0qJtjiOgcAAAAAAADAGwg6YEciogyuczzmOgcAAAAAAADAGwg6YAci4nR8FpbY4joHAAAAAAAAwBsJOmA31jHHiRm2uM4BAAAAAAAA8EaCDngn1zme5DoHAAAAAAAAwDsIOuD9yuA6x2OucwAAAAAAAAC8g6AD3iEizsfnsyW2uM4BAAAAAAAA8E6CDnifYoIJ1zkAAAAAAAAA3knQAW+0uc5xZYktrnMAAAAAAAAA7ICgA95OuPDEJq5zAAAAAAAAALyfoAPeICIux+eTJba4zgEAAAAAAACwI4IOeJtiggnXOQAAAAAAAAB2RNABr7S5znFhiS2ucwAAAAAAAADskKADXq+YYMJ1DgAAAAAAAIAdEnTAK0TE9eA6x2OucwAAAAAAAADsmKADXqeYYMJ1DgAAAAAAAIAdE3TAC22uc5xZYovrHAAAAAAAAAB7IOiAlysmmG7iOgcAAAAAAADA7gk64AUiogyuczx2W2t1nQMAAAAAAABgDwQd8BsRcTo+C0tMFBMAAAAAAAAA7IegA35vHXOcmGHL+jrHygwAAAAAAAAA+yHogF9wneNZxQQAAAAAAAAA+yPogF8rg+scj7nOAQAAAAAAALBngg54RkScj89nS0wUEwAAAAAAAADsl6ADnldMMOE6BwAAAAAAAMABCDrgCZvrHFeWmCgmAAAAAAAAANg/QQc8bWmCiT9d5wAAAAAAAAA4DEEHPBIRl+PzyRITCxMAAAAAAAAAHIagA6aKCSa+1VpvzAAAAAAAAABwGIIO+MnmOseFJSaKCQAAAAAAAAAOR9AB24oJJlznAAAAAAAAADgwQQdsRMT14DrHU4oJAAAAAAAAAA5L0AH/KCaYcJ0DAAAAAAAA4AgEHTA8XOc4s8REMQEAAAAAAADA4Qk64C/FBBNfXOcAAAAAAAAAOA5BB92LiDK4zvGUYgIAAAAAAACA4xB00LWIOB2fhSUm1tc5vpsBAAAAAAAA4DgEHfRuHXOcmGGimAAAAAAAAADgeAQddMt1jme5zgEAAAAAAABwZIIOelYG1zme2wUAAAAAAACAIxJ00KWIOB+fz5aY+H/XOQAAAAAAAACOT9BBr4oJJn6Mn6UZAAAAAAAAAI5P0EF3Ntc5riwxsay13pkBAAAAAAAA4PgEHfTIFYop1zkAAAAAAAAAEhF00JWIuByfT5aYcJ0DAAAAAAAAIBFBB70pJpi4HVznAAAAAAAAAEhF0EE3Ntc5LiwxUVznAAAAAAAAAMhF0EFPigkmbmutKzMAAAAAAAAA5CLooAsRcT24zvGUYgIAAAAAAACAfAQd9KKYYMJ1DgAAAAAAAICkBB3M3uY6x5klJooJAAAAAAAAAHISdNCDYoKJb65zAAAAAAAAAOQl6GDWIqIMrnM8pZgAAAAAAAAAIC9BB7MVEafjs7DExPo6x40ZAAAAAAAAAPISdDBn65jjxAwTxQQAAAAAAAAAuQk6mCXXOZ7lOgcAAAAAAABAAwQdzFUZXOd4bhcAAAAAAAAAkhN0MDsRcT4+ny0x8cV1DgAAAAAAAIA2CDra8acJXqyYwC4AAAAAAAAALRN0tOPOBL+3uc5xZYmJ9XWO72YAAAAAAAAAaIOgg7kpJrALAAAAAAAAQOsEHcxGRHwcXOd4iuscAAAAAAAAAI0RdDAnSxNM/Bg/CzMAAAAAAAAAtEXQwSxExOX4XFhiYllrvTMDAAAAAAAAQFsEHcxFMcHE+jqHqyUAAAAAAAAADRJ00DzXOZ7lOgcAAAAAAABAowQdzEExwYTrHAAAAAAAAAANE3TQtIj4v8F1jqcU1zkAAAAAAAAA2iXooHWuUEzd1lrtAgAAAAAAANAwQQfNiojr8TmzxEQxAQAAAAAAAEDbBB20rJhgYn2dY2UGAAAAAAAAgLYJOmiS6xzPKiYAAAAAAAAAaJ+gg1YVE0y4zgEAAAAAAAAwE4IOmuM6x7OuTQAAAAAAAAAwD4IOmhIRp4PrHE/5Vmu9MQMAAAAAAADAPAg6aM1icJ3jKcUEAAAAAAAAAPMh6KAZm+scC0tMuM4BAAAAAAAAMDOCDlqyjjlOzDBRTAAAAAAAAAAwL4IOmuA6x7P+cJ0DAAAAAAAAYH4EHe246/z7u87x/C4AAAAAAAAAzIygox3/6fWLu87xrC+11u9mAAD+y97dXreNZIsCBe/q//KNQJwI5IlA7AjkicB0BNZEYDiCliNoKoKRI2gqgpEiuFQErxUBH8oqdcu2ZIsiqlAF7L0Wl9wfBqhDEAconDoFAAAAAMD4KOigBrpzPK4VAgAAAAAAAIBxUtBB0XTneJLuHAAAAAAAAAAjpqCD0unO8bhWCAAAAAAAAL5MEF50r+2er4VIAqX5RQgoOPnqzvG4j7pzAAAAAAAA9GrRvdYlvJHZbDbvfrzpXq+7V/jz8Q/+98vuteleV93rwjMkGBcFHZRMd47v3XavM2EAAAAAAADo1XzInc9ms1C8sWzuCjkOd/irx/H1tnv91m3nuvu5Cq/tdvunjxXqZskViqQ7x5POJF8AAAAAAICvXPWwjde533ToxNG92u616f7xv93rfbNbMcdjjrrXb91rE7f9yuEB9VLQQalCFwrdOb6mOwcAAAAAAMA3epoMe5Sr+KHbz6J7XXR//L/u9aHZv4jjMQdx26Gw442jBOqkoIPixHXB3orEd3TnAAAAAAAAeNxtD9tYpHyDs9lsGbtx/NG9TjLFJRR2/CcUkOjWAfVR0EGJWiH4zk2jOwcAAAAAAMBT+lh2JUkniweFHL83abpxPEcoIFnHidVAJRR0UBTdOZ7U6s4BAAAAAADwpD6eo7zps4tFIYUcDx11r6vuPb12uEAdFHRQmlYIvnOz3W5XwgAAAAAAAPCkPjp0hOVJTvfdSIGFHN/+jjp1QCUUdFAM3Tme1AoBAAAAAADAD131tJ0PoSDjJX+x8EKOh0JRx0Wf3UiANBR0UJJWCL6jOwcAAAAAAMDPXfW4rd9ns9mzOnWE5Uu611n3Cku+lF7I8VBYfmXlsIGy/SIElEB3jiedCgEAAAAAAMCPbbfbzWw2u2n6K6j4LRZ1rLrX+pv/Nu9ei/g6rDhsJ+F37GJ35giCMs26L+g4fpHZLJww/xjxZ/Vr91mtR3sgzmYhGSro+Npl95kvhKHI43UrCo5VAAAAAADK4nnTi9x2r9ehIEYooDyWXKGE5DqXXB/VCgEAAAAAAMCzrYVgZwfdS4cOKJSCDkrQCsF3LsfckQUAAAAAACCBCyF4kZO4GgJQGAUdDEp3jie1QgAAAAAAAPB82+32z+7HuUi8SCsEUB4FHUgO5dGdAwAAAAAA4GVWQvAix3EiNlAQBR0MRneOJ50KAQAAAAAAwO7ipNkbkXgRz6igMAo6GFIrBN857y40roQBAAAAAADgxVoheJE3QgBl+UUIGILuHC4wAAAAAAAAUthut6vZbBa6TRxV/qvcdq+L7rXuXpsH/37evRZN/8/aDru4vTb5GMqhoIOhaNn0vdCdYyMMAAAAAAAAewvPov6o9L1/7l6r7XZ78YP/JxSttN3Ps+510uO+F91LQQcUwpIrZNcll1fdj6VIfKcVAgAAAAAAgP1tt9t19+NTZW/7vHv9o3vvb35SzHH/O27C/9vz77lw9EA5FHQwhFAReSAMX/mkOwcAAAAAAEB/tttteCZ1XcFbvS/kWL7keVH8Pc97ei8LRw6UQ0EHWcXuHJZb+VpY/6wVBgAAAAAAgN4tutdNoe8tLK3y4kKOh8I2evo9D+LzPKAACjrqMZa1qnTn+N5Zl2T/FAYAAAAAAIB+xWcwYVmS24Le1mX3+jUurbLpcbttT9t57ciBMijoqCvZVE13jkeFi4czYQAAAAAAAEhju92GidOhSGHo5VdCB4133ftZdK91gt9z1fRTuDJ31EAZFHSQk+4c39OdAwAAAAAAILHYCWPR3HXHyO2+kGMeiy5SWvewjbkjBsqgoIMsdOd4lO4cAAAAAAAAmYRJtqE7RvfHfzd5lmAJxSP/ylTIce/KJw3joaCDXHTn+F6rOwcAAAAAAEBe2+02TLgNS7CcJ9j8bdzuP+PSKheZfz0FHTAiCjpITneOR93EiwUAAAAAAAAyC0uwdK9l98d/dK9Pzd2yKC8Vijg+N3fLqrwK2+1eQxVWmEwMI/KLEJCB7hzfa4UAAAAAAABgWKGwo7l7lnU6m81C1443zV33jvA6fOKvheKP8PfW4dVtYz2ysCwcGVCGWXeCGccvMpuFE8sfI04ms0o/l1cxoSnoeJDkw1ppwlD1+WYrCl+5jGsOAgAAAAAAAD2x5AqphSpGxRxfa4UAAAAAAAAAgB9R0EFqrRB85Xq73a6EAQAAAAAAAIAfUdBRh5sa3/RsNls2T68tNlWnQgAAAAAAAADAzyjoqMOm0vfd+ui+crndbtfCAAAAAAAAAMDP/CIEpKA7x6NaIQAAAAAAAABKMJvNXnc/XnWvRfxX9z/nze7Pem+711X8c/j5Z/y52W63V6L9Mgo6SKUVgq/ozgEAAAAAAAAMIhZvLLrX6/g66nkXB93rOP75+Jt9hx/XzV2BR3itFXk8j4IOUpwMlo3uHN9qhQAAAAAAAADIYTabzbsfb5q7Io7wOhj4LR3F19v4/kJHj3V8XWy3241P7XsKOkjhVAi+cq47BwCM+sZom3Dzv7qOGOxzDXE/Trybj93n24o2AAAAAH2IXTiWzV0hR+kT8EOByUl8/da999DBY9Uo7viKgg76Pkksmv7b89SuFQIAgKquacNN73HF7z9ck/+RYtvdzfTMEVLXZ9b0XBiW+L1O0eWDP2/iK/hrreHu8/tTmH54TG5r+O5M9LM56368T7iLm+4zmos0GY/ptvvxIUUu6I7lhQjLL8gvAHucG8N5KxRwhEn3Na+iEJ4x/9Z8Xdyxmvp9sYIO+tYKwVfOVZABAFR1A/yq+3EmEkAmx0/8+eF5KfwIhR+b+Fo3Cj2ow5vE2z8Msw+tuw0gv8gvwFTFSRehiONkhL/ew+KO8+7n2VTPzf/jUKfnk8axSHylFQIAgOqu3w6EAShMuNcOawyHmeGhQ8r/6+7Br8IM1e71JhajQTHiDMEcMwOXog0gv8gvwATPh8twTxjvD08m8CuH++H/hiWS4/PoSVHQUYdNJe+z9VF9RXcOAIC6bobnTdrWvQB9OornrP80dwUeF3FQT3EHJXgzsv0AIL/w8nvtbcJXK8KDfrabxJ+vz/j7mId7vk33x9/jPeHUhMkOf0ytsENBRx02FZxAFo3uHA/dNgpcAABqsxICoGJhVlYY1AvFHaspzlqiKMtM+/nSFl+4AeQX+QXyioUWhyKRLd6LB4Uc4j6xwg4FHdR2IVWLM905AACqujF+0yhQBsYjtKP9Y6rtaBk8p86bvLMFl6IOIL/IL5D9+/hBJPLEOtzXNXdLqyjk+N59YcdqzN0qFXTQ14n7rUj8JXTnOBMGAIBqrmdfuX4DRup+cOsi3rtDDovM+9MWH0B+kV8gr5UQpBe7oPxfYwLSc4Tn1GEJoNMx/nIKOuhDKwRfCd05/hQGAIBqhJs9sxyAMQvLsVxZf5pMcj8A0xYfQH6RXyATHU6zxPh197pqdEHZ1UH3+i3EbmznbwUd7HtSmTe6czykOwcAQH3Xs26QgSkIg1sf4jIsc+EgUV4NXa9OBtj1UvQB5Bf5BbJ8Fz0DSxvjtvvx3ybvElNjE2L33zFNaFDQwb5aIfiK7hwAAHVZCQEwMWE2XZixtBAKEngzsf0CIL/AlLSNDqdJhKJ7XTl6N5oJDQo62Ofk8soFzVduttttKwwAANVcz2oTCkxV6NbxR3ceXAoFPRtqnOhQkRKA/CK/QDpxCYv3IpEktuEcF4o5dOXo3/2EhqqfZyvoqEOpHR/CWuMHPp6/tEIAAFDNzbI2oQBN83t3PnQupE+LAfe9FH4A+UV+gWTcNyQQlwX5T+N5a0ohtv+peQkWBR11uCrwBBMGwE99NH8J3TlWwgAAUI1wLatNKEDTvO/u8d3Psrc4623IgWhdZAHkF/kF0nwPwxiKDqf9xzXch1liJZ+wBMtFfMZdFQUdvNSyUS32UCsEAADV3DDP3TADfOWtTh30YOgHXge1t1IGQH6B0sSH361I9BvT7hUm878VjexOutc6jg1WQ0EHL6U7x9905wAAqItrN4DvhU4dS2FgD2+8BwDkFxidUPhtgndPYoHMunsdicZgQuyvus/idS1vWEEHLznZLBvtqR9S3AIAUM+1bBiI0yYU4HG/d+fJhTDwgvwajpsSBvo9cAOQX+QX6Pc7qItEf/EMBQShM4dijuGF3LKupahDQQcv0QrBXy632+2FMAAAVMOSAgA/dlFb+1mKUMqDLm3xAeQX+QX6YwylJ7FwYN2YMF+S+6KO4s/vCjrY9YSzdLL5SisEAADVXMu2rmUBfioMapm4wK7eeC8AyC8wHnEMRSeJfmJ5X8xh6Zoy73//U/ryowo62NVSCP4SunOshQEAoIqb53ljqTyA5zrqzptm4/HcHBsGqEsqmPTADUB+kV9gv+/fvDGG0lcsXzWKOWpQ9PKjCjrqcFXISSccyNYb/1srBAAA1Thz8wywk/clD2hRlNIecGmLDyC/yC+wH2MoPVDMUZ2LWExYnF98NuXbbrd/FvJWWp/GX3TnAACo5wZ60f04EQmAna3CgFZB4xKU6U2h78nSQQDyi/wCO4qFS8ZQ9o/jfTFHjcvW3HSvTXz/QWg88Jx7wvk3r1AcUVMxS3iv6zCO2N0DX5X0xhR08NwTT/ji6c7xt6UQAABUYyUEAC8S2pyHVsutUPCYOF5U4iC1GdQA8ov8Art/90IRgqUX+7Fq6ijmuG3uCjdCAcO678ns8XweCjsW8VV6TO6LOuYlTWxQ0MFztULwl/PuS7wRBgCA8nU3YOE69lAkoHzdfdZsZOefeXM3K+lbYTDrVVPPrKUP3e+ych/ME/p8sHXTY87+0ha/O27NogaQX+QXeL7TxhhKH/eCoSim5C4n4bwYzmMXqVcjiPeRm7i/+/vkN/FVaiOBh506iijqUNDBc0484cv1ViT+0goBAEA117GnIgEM4cHA1bfWT5yv7mcthYGt0gZRzxozUnncssdtrbrXhx63py0+gPwiv8AzxXuSDyKxdxzD+et9oW/vPJwTUxdxPOM+OdxfnsVjbhlfpd0DH8X3uSzhzfyPrxbPYBD8wcnOrCQAgGqEG68DYQBKF+4zw0zP7nXavebdv/pH9/p397ou5C2ehNlJPikeii25+2qZfNk8Uuy0J0VIAPKL/ALPtxKCvc9foUj/98LeVlhS5WP3+t/uXnM5ZDHHE/fBbbwH/lc8Z5fkbez8OzgFHTzn4mkpEn9phQAAoIrr2EVTdntLgCfFga2z7hUGBH9t7mZSuR+mNH0+0NokGFz+0hbfxwQgv8gv8GOxq8SxSOwVw/A8taTuPaGQ4113DnwViyb+LDl+cYLDIt7/llTY8aGEyQ0KOso39EEbunOY1Xjno+4cAADVWAkBMAbhIUSYSdXcde0YsrDjWJcOvtHrA7f487Lg9wiA/CK/MDqxEOFMJPa2aspYNuS+I8e8u49cVXr/G+47Q8eOm0Le1kX8ngxGQQc/sxSCv06AEhoAQAViO8RDkQDGJHbtCPfoYcbSUANbrU+CmGvDgGafnbDW3/zsiwduAPKL/AI/v8Y3sXu/c9dpU0aX2M/d63UNHTmecf97EZdi+VjA2wnfj0G7ryjo4EcnoGVjIPzeWe0nPwCAiVzDhpu9U5EAxirOWArnuk8D7P44nmeh7wdZV/HnuuftaosPIL/IL/CE2IHvvUjsFcOwTOZvA7+NUPD/a3ef+GZsKw2E4pTuxz+71/XAb+U4Fu4MQkEHP9IKwRe6cwAA1HUNa2YJMHrb7TYMJr2L96y5z7Ow6HFbN/eTaELBUoL36oEbgPwiv8DjPPva32rg/d935ViPNcDd73bVvULhzNDdOtqhJjgo6OBRsbpUd46Y0HTnAACo4hp20f14KxLAVMQ1kcO5L2dRx5uh1w+mCH0+xLr65p8vC36vAMgv8gujELsNHInEXjFsB4xhuAd8F7tyTOIZZuzW8WuTf1LDvTCBbDXEjhV08BRtqv8+IapQBACog+s2YHLCbKUmb1FHGMTyAGPC4iSgPrthffvAre/1qbXFB5Bf5Bf4+vsWCrRbkdgrhqFjxIeBdh+WWFnEAv+p3f+uux/zZrglWAZZekVBR/k2A5yEFuGAFPovTnXnAACo4kbazBJgsh4UdeTi4cW09f35r3/yz45ZAPlFfoF+rRrL1e5rqElFodvQ63gPONX73z/j/e/5QG+hzd21UkFH+TYD7HMp7F/cTLG6DQCgNmaWAPxV1PEu0+5OLLsyaYuet3f1yLHcd8cZD9wA5Bf5BZq/JnWfiMReMVw2w0yMP+/OZQsT0e+KOrpX+ByGKOoIxVBZC3oUdPDtSWjeWHf8XisEAABVOGvMLAFo4qSEXANaHmBMUGwtfdjjJm+eGJBe9/zWtcUHkF/kF7izEoK9zlehsH2I7hznsYCBr++BQ0w+DrDrt7E4KgsFHXzrVAj+uuCT1AAAyr+RDjdPCpIBvr6vv8mwHw8vpmnZ8/aeahV94ZgFkF/kF+jXbDZrm36Lp6YoxDD3pKJ/K+Z4Wheb8Jm8G2DX2Qp7FHTw8ET+qrHcysMTMgAA5TsTAoC/xdmoOSZrLER7kvp+aLXe8d+X9N4BkF/kF6oRO/R/EIm9Y/g+827fdfd4xr5+fh+8avIvv3IUl99JTkEHD4UBH62qm+ZSdw4AgCpupMP165FIAHytu6cNs08vE+/mILZHZzp5t+92+MHVE8fwpum/04y2+ADyi/zClK2EYG9t5v198rxyp/vgZZO/qCPLMaGgo3ybjPtaCvcgJ2QAAHYUu8u5bgMY9t52IcyT0vvnvd1u1z/4z9riA8gv8gv0IBYdHYvEXjEM56qcS/6ed+eyU5Hf+fy/bNJPbnjoMEeXDgUd5dtkOhGFg826WXfdOdbCAABQvNBuUnc5gCfEe9vUA1kLkZ6UZc/b+9nxuU7wO3jgBiC/yC9MSpwQsxKJvbUZ93UeCxN4+Tn5OuP+zuL3LBkFHdxT5ZX/hAwAwAsMMCsCoFap11q25Mp0cu+86X+Zs6uf/Pd1gl9FW3wA+UV+YWraxoSYfc9ViyZfh5NQiOCZ7R622+2fzV2x4G2mXR40iVfBUNDB/YnI2uO6cwAA1OJMCAB+rrvHDS3FbxLu4jD1TCSKkeIh1fonx28YiL2s5HcBQH6RXyhOd60eCrDfi8Te2kz7CQUIi3ieYr974VDcl7MwJum+FHTQNCq9cp+QAQB4obhUoGJkgOe7SLx9XTqmIfsDt4THrwduAPKL/MJUmBCzp9hJKFd3jjeKOfrTxXLV/TjPtLvDOGaZhIIOJ6JwIjoRiS/rUa2FAQCg6GvXMAs852BEmBlxLfJA5RR00Ef+7XsQ+/qZg9XrBL+StvgA8ov8whS+Y6dNvkKEMWsz7eej55RJhO/BTe3HioKOwmX48raiLA4AABVdsx1k3p+ZEUDVMowrWHJl/FI8nLp65vEb/r+bSn4nAOQX+YUixIKpViT2juO8+/E2w65CMZrPK839cBjXW2baXejSsUixYQUdTuguMO66c2yEAQCg6GvX3Ou+3nTXiFqTAmNxmXDbC+EdvaHa4b/k/x3ydwJAfpFfKEUYzzgQhr0tR7afSYqTHD5l2l2bYqMKOqbt1Ak93ZcLAIBe5S6ucDMNjMlaCNjDycDHZIplg7TFB5Bf5BdGKXYIeJtxl2G52puRhnOZYR+fYtcg0mrjsZracezs0isFHdO2FALdOQAAStfdCIXr1pzrvn62bikwMikHCK3LPe4cnOKh1PWOYzGpcrIHbgDyi/zCGK0y76/tXpuxBTGORR0m3s1tY9J5FnHpldNMu+t9Pwo6pnvBlONEVLrbjF9eAABedt0algnM2Z3DNSIwRn8KAS80dDv8+8HXz5X8bgDIL/ILg5nNZm2T99nf9YiXq83xXT6N5yIy6GK9Csdshl0t+96ggo6ypWxRZJC6ac6cKAEAitc2eZcJPNPBDRgbXYfYw+AP3Pb4Oz+jLT6A/CK/MBpxmYfcz/5ORxzLk8S7uYkFBozvmD2IjRV6o6CjbJtEJ6JF9+No4rENMy/PHGIAAEXfQL/ufrzPuMtwM92KPMCLzteM73MND6NSFFWuX/B3LhL9mh64Acgv8gtjcdbknRDzacSF4zm+w61DNr94zF7Wdgwp6JimpRDozgEAUMM1m+tkgN6kbC37SnhHaZHiOHzJeEzsnpWik+2buLwbAPKL/EK1YqHUScZdhknT7YhDmrqLg+4cw8px7J70mQcUdEzvpD7vfrydeBh05wAAKP+6ddn9OM64y8+WJABGzqQGdpViZuLFQH/3KQeNWdQA8ov8QsXiQ+Pcz7xOxzppOnYfPEy8m9aRO5yMXTqWfW1IQcf0nApB0+rOAQBQ9M1z7sGIW9fJAPBVLk41kL3e4+9qiw8gv8gv8L3TJn0BwkOXI+8usUy8/VvdOYrQ1nQsKego26bni6VXjTbSoY2R7hwAAOXfVOVc9/UsttoFAO4sE2zzdp9uWPHv3iZ4Xyfa4gPIL/ILNYpFUh8y73bsE2JSF2N5RlmAeO6/Sbybo7hyxt4UdJRtk+AkdDDxmLYOKwCAcsUbnfcZdxkKfl0jAsDXUgxkr3vYhlnUAPKL/AJ/y10c8HG73V6NNZiZlltZOWyL0daS9xR0ODCn5EYbIwCA4uW+XlsKOQD8LRZXphjI7uNh2TrRr+2BG4D8Ir9Q23dq2f04zrjL0M1g7N0lFom3/1mH2KKE/HGbeB8KOtjpxL5o8q6hVaLWkQAAUPQ1a7jJyTkYcblPa14AGKlUD58uCtnGY7TFB5Bf5BeqEY+r3MUVp9vt9s+Rh3aZePsrR2854vF8kXg3x33kAQUd03E68d9fdw4AgIINNBixFHlgQl4LAQPmx+s+HgDEbXxO9HubRQ0gv8gv1KLtXgcZ9xc6S1yMOaBxXOoo4S5uxx7DSuUYi9w7DyjoKNump5PQvPtx4mIRAICChQLknB3lPmpzCUzMgRDwM3EMKcVAdp+D1+tEv74HbgDyi/xCDd+nRffjfcZdhiUppjBpPPV3VTFHgbbb7VX34zrxbhb7bkBBR9k2PW2nnXgctdIGAChYHNz7kHGXU1j3FeDheTZ1q+8rUR6NRaLtXhS6rYe0xQeQX+QXapB7PONsIhNiFom3r6CjXKvE29ehgx+LFwpTrwBtHQkAAJO+cfrWFNZ9BXgo6XIrzqmjkmIM6SbOfOvreNs06WbRmUUNIL/ILxRrNpuFThlHGXcZvmftRMK7SLhty62ULfVnc9B9d/e6J1fQMX7LZtptVXXnAAAoWHdDEwa2jjNfH7qJBqbmtRDwjJwcJgWlWLL3opJtBh64Acgv8gulfpfmTf4JzMsJxTblMsDGoQqWuKDv3mKfv6ygY/xOJ/77tw4BAIBib5jDwF7uVqFLkQcmKGVBx7Xwjkaqh03rBNvUFh9AfpFfmJowfpJzAvf5hCZMLxJvf+3wLd6q5FyooKNse7ULi7MdDyccv8+6cwAAFO008/Xqx4ms+wrwrUXCbVtuZTxSPHBL0l46tti/qSgOAPKL/CK/8GKz2Sxcz59k3OVtM60J44vE29eho3ypP6O9uhMr6ChYD2vQLicewlNHEQBAmWI7yw8ZdxkG5c5EHpjo+TZl8dxGlEdjkWCbKQdGtcUHkF/kF6ZilXl/bQ/PKKd+nrp3PbFYVilOALtJuY/u3vzFnTMVdIxUHLA5mXAIzs2+BAAo2irz/k7dQAMTtUi8fffeIxC7vKZo4Z3ygds60Xa1xQeQX+QXSvoetU3e7qahAOFsQvF9lTi+a0dxNVJ36XjxvbmCjvGaeneK1iEAAFDszXIY1DvOuMvLFO14ASqRejbolRA7Tn5gneoNx9x+W+n3BkB+kV/gpwbobhosJxbmReLtrx3J1ViXeqwp6CjXiy8YYjXZcsKx050DAKBQ8Vo190yPpcgDEz3nzpv03Tvdf49DigdMnzN0x9IWH0B+kV8Ys1Xm/X3qvl9TK9h+nXj7a4dxHTJMBrPkygjtc8JM1casFq3DBwCgWKGTXM5WoZ8U+wITtky9gwkO+I7ObDZbNPW1w7+3TrRdbfEB5Bf5haG/Q7m7m4aJ5u0EQ71IuO1ry/9W5zLhtg9fmgMUdIxTO+Hf/aMBewCAMsWZ4jmXBpzqYATAvdTn3EshHoXq2uE/cFFhXADkF/kFfig+9F1l3u1yosUH84TbVvxen9Q55kVdOhR0jO8kv2jyzngsSRiwP3MUAAAUK1yr5ewkd2omBDBVs9lsmeGcuxbpUUjxYOk6x4SbmOc/VxQXAPlFfpFfeI62yTt+cplhuYkS75lC4UzKZ6oKOuqT+h538ZK/pKBjfJYT/t3PDNgDABR7kxxuWE4y7jIMRqxEHpjoOTcMTLYZdmWAsv5jJcwQSzGInTMHrxNtV1t8APlFfmGo78/7zLtdTjTcrxNv3/1Sfa5KPOYUdJRr54uF2ML67UTjpTsHAEDZVpn3dyrkwISFc2CO7p1roa5eqlnCOWd4aosPIL/IL4xJ7mddH3N0vilU0oKOLq7ulyoTGwfcJNzF/CV/SUHHuCynnOB05wAAKNNsNmubvMsCfuquDc2CAKZ6zp13Pz5k2NWl+/BRSPFA6SbnQ4G4r+uK4gMgv8gv8gtPXcuHwuzjjLsMD66nPFl6nji21CnlmOLRS/6Sgo5xWU709556wgEAKFZ8sJizW0bo3NaKPDBhq0z7uRDqUeToo5EcG6n2qS0+gPwiv5Dru5Nr2cSHlhMv0k7ZoWPjqK7WVeLv+s7HnYKO8Zzol03eWY8lac0KAgAoVii8Pci4v1PXhsCExwbaJt+MPgUd9Us1O3g1wO+iLT6A/CK/ULvc4yefLQmStEPH2iFdrdSf3c4FfQo6yrVr9c9yonEKbdZWDhcAgPLMZrNF9+Mk4y4vXRsCEz7nhocCHzLt7nrC62yPyTLBNm+HWPYs7jNVW2sP3ADkF/mF1Nfyi+7H24y7DN1NT0U+6UR590v1Sp1vFrv+BQUd5Xr2rMLYwux4onFqHSoAAMVaZd6fwQhgkmLL1pzn3JWoV3/MhFlhY2mHn3rf2uIDyC/yC2O7vm6nXqD9kmUvdrRxWNcpdv69TbgLHTomqp3o7607BwBAuTfG4Ro155KAn4aYsQVQwPk2DESum7ztmd2L1y/VrOAhH7itK4wXgPwiv+B6vm3yjp+EbntnIt+kLqgyRlW3lJ/fzsVECjrqP9G/mnDSNwMTAKDMa9R55mu1UDXfijwwwfPtEMUc53HGEnVLMpbUHRuDPXCL+76tKV4A8ov84pCZ/PX8vMn/rMuztTuLxOcO90x12yTc9nzXv6Cgo1zPrfwJCf9ggvG5HPIiDgCAHzrLfI3aulEGpmY2my2b/MUc9+d46j52wuSgkwSb/lzAr6ctPoD8Ir9Qk9zjJ6E4ey3syV0LQfU2Cbe9c0ceBR2F2mFAeqqVdK2jBACgPLPZbNGkGcR78iZZq1BgYufZV90rnPd+b/IXc1xa3moUxtgO/966wrgByC/yC9O8rg+ffc7xk9BpRneOv71OuG2Tjup3lfj7v1Mxn4KOuk/2i+7H0QR/9UsVhAAAxcpdXGEwApjaOEAYWHo/0FtofQqjsEi03RIeuKV8Dx64Acgv8gt9XdeHh7nZx090N/1Kyu44iuDrl/q7slNBkYKOui0n+nu3PnoAgPLMZrNQXJGz4FirUGAq59fX3Suc7/5oXtCetScmV4zHm0THx+APCOJ7SNWaX1t8APlFfqEvp5mv68N3aSXsX0n5vVM4U79NSW9GQUeZfrq2UkzwbycYGwNIAAAFitenbcZdahUKTOHc+iYWcvy3ex0P/HaWPpFxHFNNmqV6Lgr6NdcJt20WNYD8Ir+w7/clzMz/kHm3xk++l3JCkoKOym23203iXejQMQLP+aIvJxobSQcAoEyhVehBxv21WoUCYxSLOM6616b7x/80wxdyBJ8yDGiRR6oHRiU9cNMWH0B+kV8oWe6lVj521/KWAMlLvMfhNuG2d+oQ84vPolpTLGw4l3QAAMozm80WTd7ucdfddeGZyAMjOH+GWTnz5m52TjiXHhf4Nm8aS5+OySJRXt6U8guG99J9t0L32xSzLr+0xVdUCiC/yC+88Pp/mfmaP1zLGz/5/nOYiwLPcFXKPbqCjjpPNOHi6HCCv3rr0wcAKFLuwQFd24DS7tPnzV1hxmPCzJv7dqr3/1/4d0eV/HpLDxdGc5yG4zDFeNK6wF/3IuF3LMyiXjmiAOQX+YUdvyvhHiD7+Ilr+UfNE29fzPmZnZZcUdBRpp91oZhqd46NQwMAoCyz2Sxcm+Z8KBmuC9ciD6M8n2xFoTifnHNHZZlou6sCf9fwwC3V2vQeuAHIL/ILL9E2eZeqveyu5S+EPT+rDYxGysKcnZZc+R+fRV0HSJz1czLRRAcAQEHi7JKc12lh7UrdOQDyuHYvPjpvEmzzpsQB6/iebhJt/iReAwEgv8gvPEvsvP8+4y7D+MlS5GEvxeQhBR31meIJ+JPuHAAARQqtQnPOLmm1CgXI4ssAsHPueEysHf69lDNS3ziqAOQX+YUd5F5q5cxztR9aCAE1UdBRn+XEft8wiNT62AEAyhJnl7zNuMswQ+tM5AGyWGoTPDqLRNstuY33OuV3xCEFIL/ILzzHAEvVhvGTVuQHcysEPMPrXf5nBR0VXRB0J/1QnXk4sVicmREEAFDmdVrm/S2FHCCLd9baHqUUefS25GMlvrdUA+rHcVlkAPlFfpFfeFL8PNsRfC95PoXxPMdOHY8VdLg4Klm4KDILEwCgMAPMLvm83W7XIg+Q3L+78+1KGEaXt+eJ8nYNhT/a4gPIL/ILQ8q9VK3xE+hPMcU5Cjrqujg6mVqi050DAKC469JXTd7ZJaHI91TkAZI7t7TVaKV6MLSu4HdP+R6XDi1AfpFf5BeeEpeqzflc79bxA70q5hm1go56DpCpnYR15wAAKFPb5J1dEop8N8IOkFRYZmUpDKOV6oHb1GdQH2mLD8gv8ov8wg+sMu+vNUn62V4JATVR0FGg7oT7WAuX5cTCcCrxAACUZTabve5+vM+4y5vumrAVeYCk3llmZdS5OwxWHyfY9Ocaxm3ie/yccBfa4gPyi/wiv/DYd6Ttfhxm3OW1bns7eS0E1ERBRx0n/jeZT/xDuzGYBABQpNyDA0shB0gmdMb81f336E25HX6O9+paBZBf5Bf5ha/EDisfMu/WMQMjpqCjDlM7Ebc+cgCAssxms3BNepxxl2Fm1lrkAZK47l6vnWcnYcrt8HO8V23xAflFfpFf+NYq8/4+PdH5n2H4LOidgo7yXD/8h5i0Tyb0++vOAQBQmNhON2d3jjBr/FTkAZIIA76hmGMjFJOQYkzpuqbjJ77X64S70BYfkF/kF/mFL2LH/ZyTYcL4SSvyRflTCOibgo7yv+jLif3+Eg8AQJnXaAcZ93fmQSNA726auyVWFMxNRHygkMKqwnCsE2576WgD5Bf5RX4hTobJfRyfdtf3Cghg5BR0lG9KSftadw4AgLLMZrPX3Y/3GXcZOra1Ig/Qq4/duXVuiZXJSfXArcbjaJVw29riA/KL/CK/ELRN3skwl56pwTQo6CjPX5V0XbJedD8OJ/S7myUEAFCes8z7Wwo5QG/Ou9c/FMpNVooHbjc1rtEe3/NNZbEGkF/kF/mlEgNMhgmWIg/ToKCjPFcTPRlfmikEAFCW2WwWrkdzrv3qmhCgH5+71z+7c+rSElaTzeHhAVCKGaIXFYcl5TXG0lEHyC/yi/wyabknw3x0nQ/ToaCj3AujsNbW2wn9yq1PHQCguOtR3TkA6nLfkeNNjbNc6dUi0XZrfuCW8r1riw/IL/KL/DJR3WcUus/nnAwTusKciTxMh4KOci0n9LuaiQkAUJ62ybv2q9klAC8TBnT/3b3+V0cOHkjRov225vGb7r2HB263lcUcQH6RX+SXgsXJMG3m3YZr/j9FH6ZDQUd57mfQnE7od2597AAA5Rhg7VezSwB2Ex4ahG4cYVmVefc6M6jLN3n8MMGmL0YQnnXCbS8dfYD8Ir/IL5MTxjJyTob5bIJ08V4JAX1T0DGtC6MSnUs+AADFyV1ccepBJMBPXXevT93r1+6c+Sp247CsCo9ZJtruGB64aYsPIL/IL/Si+1wW3Y+3GXcZirpPRb54r4VgNIo59yroKM8qvqai9ZEDAJRjNpuFdq451369jC1qAfhaKOAIXTjeda9/dOfK193r1KQIniFVa/YxHHsXlcYeQH6RXyjPKvP+ziyv2Btx5DnmpbwRBR3lCa2Zjibyu55LPgAA5Yhrv+buzrEUeYAvwoy7j81dB45ZLOAIXThW7p3ZIZfPmzRdXz+PoZtW/B0uXdcAyC/yC3t+J9omb6f96+44a0W+N+6vGNr1Lv+zgg6GJPkAAJQltO7MOSDx0UNKgL8cxPOwNZfZR6oZvGPqpqUtPoD8Ir/wYvGzyL30iaVWYFx2KmZU0MFQdOcAAChIHJD4kHGXN03+biAApQtFHf/pzskXsWsS7GqZaLseuD2ftviA/CK/yC/jtorX7bmcW3YRBlHMPfkvPgsGENrItsIAAFCUVeb9nY6htS7Qn7DMSOp9zGaz183jgzL3/34eX+GfDwYMx0n32nTvNyy5cuHo4JnHdzh2Uyzjez2mnB0mGHWxum7SLXm8bBStAvKL/CK/jPX7EAprjjPuMjxP052jLnMhGI3XpbwRBR0M4Ux3DgCAcgwwIHHpASUwhO7cc/XEf1o/cm6cN3cDOOEcuWjyLkkV3HfrOG8UwfE8i0TbXY0wVuE7n+qB25e2+Ma+APlFfpFfxiV20MtdVNO6D0j2XU3VpfZQeHmGq13+Z0uukNtto4oUAKAYAw1ILEUeKF0YLA/FZ90rdMmYd//qn93rfIC38rZ7rWN3EfiRVK3Yx1iEuar0swCQX+QXhhM6ZeR8WB8mw3ieBsNJueTKToVaCjrI7Uw1IQBAUXIPSHwyowioUejuEYo7uj/+bziXZd59mOm5jh2V4DuxQPMkwaZvxpi3Y7eem4S7WDoqAflFfpFfRvVdCMXVHzLv1lIr9R4vc1EYhaNS3oiCDnLSnQMAoLwbzJwDEuF6sBV5oGZhkkL3CoOroWPHdcZd3y/BsvQp8Aizp3e3TrjtIwP5gPwiv8gvo5L72danHywXyf73dOvEu/A95WcsuUK5CU93DgCAoqwy7+/U9SAwFrFjR5ip9zHzrn+fzWYrnwDfSPXAbczH2kWlnwmA/CK/kFEsqD7OuMvQ5aUVeRj0e596yVNLrlCk0EJNAgIAKOfGJAwC5RyQCGu/rkQeGJt4r/uv5q4LUS5vFXXwjUWCbd6MeWZo97tdJP7eLh2WgPwiv8gvdYvLDuXuzmEyTB4pl0d6LbzVe5V4+zt9x3/xeZBJKwQAAGUYakBC5IGxCgP33bl10dy12D7ItNtQ1BH2vfQJTD6vv0l03B12296K8It9aYvffUc3QgHIL/KL/FKts4zX98FlLAoivfAdOky07VfCW7154jEES65QnBuzMQEAinKa8Kb1MdZ+BUYvnucWTf5OHQrm0HrdZwPgHOazoWexYPtt5t0uRT6bTcJt69BRv3nCbe88ZqCggxxaIQAAKEOYydPk7ZZx63oQmIqBijp+izNomS6ff7mWQgDIL8gv1crd2fSjzitZpYy1Dh31S1mUs/OkNwUdpKY7BwBAWXK3C7X2KwxLd5zMBirqWM1mM7PAJijOHD0QiWIdxWJaAPkF+aWu70CYCHOUcZfhWVor8lltEm77WHirl7IoZ+dxUgUdpLYUAgCAMsRBuZOMu7xU3DvKY4iKKKgaLO73RR25hAcuF9131Eyw6TF72mcE4NzlM6Lf+955k7/T6FLks9skPo7cm9UtZVGODh0UJQzgr4UBAKAYq8z7OxXyQWyEoDpzIRifWNTxLuMuD7vXhchPjoc55VsKASC/IL9UJXdn08+epQ0idTdLHRQrlaED0mbXv6Cgg5RaIQAAKOZmJFybHWbc5Xl8mElm1tyt0lwIRvt9XHU/PmXc5XE83zON3P46c27nZbTFB+QX5Jd6jv9Fk7ezaVimcSnyg9yr/dmkXSZTQUe9Un92m13/goIOUtGdAwCgEHGQJ2e3jNtGdw6AL7p743A+vMy4yw+WR5oMs6d9VgDOWT4rehKXyFhl3m1rmcxBpZyIpKCjXq9LO+4UdJAsCQkBAEAxcrcLNSAB8LUw2H6bcX8X1myezHFFHZZCAMgvyC/FC4XYObvTXG+32zNhH5SCDnJ/drcvGTNV0EEKunMAABRigHahBiQAvhEHbHI+HAlFfBciP+r8Pu9+HIlENbTFB+QX5Jfyj/0PmXers+nwUhZ0OJfW63Vpx5yCDlJYCgEAQDFWmfdnQALKcS0E5YgTHz5l3OXxbDZzTh4vs6d9ZgDOVfjM+rPKvL9PJkYXIWVBR2MpzPrE4q6UnXpe9L1X0EHfzrsktBEGAIAibkLaJm+70HMDEsW4SbTdudAmkWr2h6WPytMm/H4+5rcuF2j1O05LIfCZAThX4TPbX3e9HIpijjPu8jbeFzCw7XZ7lXgX7sXqk/oz06GDIkhCAAAFiBXlOWdm3za6c5Rkk2i7c6FN4pUQTENcemWZebcrkR9djg/nDC2c66MtPiC/IL+Uedznvl4+jfcFlOEy4bYXwlud1J/Z5iV/SUEHfdKdAwCgHGfd6yDj/loDEgA/N8DSK0exYxPjobV6vZZCAMgvyC9FCdfJOcdOLrv7gZWwFyVll46F8FYn5Wd2+9KuMAo66DvxAQAwsLhG50nGXV53NyRnIg8vlqpDx0Zoi75/vs24vw+WXhkVD9zqtRQCQH5BfilDvD5+n3m3OpuWZ51w2wfuw6o6J6TuVPXi4iEFHfTlo+4cAADFyF1cYUCiPKmuzedCm8RRZccBe7L0Ci8VBxlPRKJahwb1AfkF+aUYua+PP750dj5Jpf5MFkJcjdSFjeuX/kUFHfQhzCoyIxMAoACz2SwUV+Rc9/g8Lh9AWTaJtjsXWuhHd+68aNKu1/wtS6+Mg9nT9VsKASC/IL8Ma4Cxk5vGc7RS78s28fNxfmWRePvrl/5FBR304cx66QAAw4uzqtqMuwyFvbpzwP7f21Tcp5VvmXl/YemVubBXbSEE1TOoD8gvyC/D34O1mXd76jla0dYJt32c+L6fes6jllxhMLpzAACUI1yXHeTcnwGJYm0SbdcgRP9StkbWzrdwcTbYx8y7XYl81TysqZ+2+ID8gvwyrNxjJ59jdz7KtXaOnbZ4/kx5XrjeZwxVQQd7Jz6D+AAARdx4LLofbzPu8qa7DmxFvlibRNs9Elro/766Sdvi91thhthS2KvM9WEg+EAkRsF3EJBfkF+GOd4XTd6xE51N67BOvH0FHc6fex1jCjrYNxHpzgEAUIbc12VLIYdeLBJueyO85YuTJHIP8p5p+1slA8E+SwDnJHyW+1nlvu6OXfko+54sfEbXCXdx4v5r8ufP9T5/WUEH+7DmFwBAAbqbwvAgMGfnhNAudC3y5Ur5+WjjW9VxsBGFaj6r0IL5MuMuwyxcMwXrsxCC0dAWH5BfkF8y62LThhhl3KXOpnVZJ96+gqtyzw2vU58b9l12SUEH+ySilTAAAAx+0xEq/HMOEGgXilkl/Vok/K5Sl9zn1g9dDpkLezX5PuUg4z+22+3M6+tXk77IaunIBuQX+UV+yXaszwe43vZZ1OUi8fYVdEz3XvzzvhtQ0MFLtUIAAFCEsNRKzvWOtQutx02i7c6FtgpXQlCX7twaPrPzAXIIdVimyhXy+pMM6gPyi/wiv4zHqsk7dnKus2l192Ph80o5MeJEQX2xil5uJVDQwUsvxlbCAAAwrO5GcNH9eJv5OrAV+WpsEm13LrS9OhYCHggzg3J2VzmJuYTypRpkvBDawWKjLT4gv8gv8ksGXTzeZL7v0tnU9/MpSyEu7vwQPpOD0o8rBR28RCsEAABFyD2z2o1nXTaJtmtwsCeJZ+esRbg+2+32zwHO7e7xyz9XpGyH71zx9Pcx5NFr11aA/CK/yC9VH+evhri+jtf11EdBx/Sk/kyu++hYpaCDXV3qzgEAMLzZbBZmexxl3OVn7UKrs0m03VdC25t5wm0bQKxXGHC+ybi/4zgriXItEm33tsvtZlD/mLb4gPwiv8gvdQtjJ4cZ9xeeoVnWsFLx3JWyY+Khe69yxEk2qbv3rPvYiIIOdtUKAQDA4DccrzJfl2kXWqerRNu1REh/FhV+/iQWZ/Plvvd2r1+2ZaLtroX2p7TFB+QX+UV+qVSMwYfMuzV24vvpGKlHjvvgVR8bUdDBLi7NygQAKOaG4yDj/s76aA9Idsk6NCReKmRKUsbRd7ZisTPmdcZdmilWqHi+TdWRy+zpn38XQ3Fc6o45vnuA/CK/yC9p5O6U8Sl+ttQt9TnsqDsHL4S5iDz4NvFubvo6JyjoYBetEAAADH7DEWaYvM+4y3Dz4TqwQomLseci3IvXCT//jfBWL/fMLef6MqVsmb4W3mfRFh+QX+QX+aUysVg5Z3fJW9fT45Bh2RX3XmVY1nSeV9DBc+nOAQBQhtwzTLSCrFuqWV8Loe1FqlmR10Jbv3gPfplxl6FLRyvyxUn1MOZa4dezrTJ89yy7Asgv8ov80pO4TG3usZNlXDqRcUhdcHWsS8fg54gc4529nYcUdPBcBvIBAIa/4Vg2eWeYXMaZCdRrk2i7Hjzt/31eVPi5M/578dM4uEUZ54lXCfP+WoSfJ7ZJTj1LcynSgPwiv8gvvQkPUXMuU2vsZJzHUGqtMA+mzXCO6LXAUUEHz3Fu3S8AgGENNcNE5Ku3TrTdhdAWHUP3byMR78XPM+4yDGqZ0FGOlK3SV8K7E23xAflFfpFfKhAL599m3u3SoTzK+7CbxLs5jhO3yHuOmDd5lrLudQxXQQfP0QoBAEAR12Q5Z5h81Cp3FFJ9hgfaw+9tkXDba+F1T74HXTrKkeohzK2JOztL/cDNsiuA/CK/yC/9yD0RxtiJY6mmez3ynSN6Pb8r6OBnziUjAIBhxQGY9xl3edPkHwQhjZQDqgvh3UvK5ZPcw41IvCf/lHGXunSU4yTRdrUE3/17GGKmLT4gv8gv8kvBZrNZuIY9yrhLYyfjtsqwj1B01Qp1tnPEImEOfCg8W/+zzw0q6OBnnEgAAIaXe4DgtO8bD4aReIbcQoRfJg4ipHKrKH+09+a3Gff3IbaiZbjzRMoW6WsRLjJull0B5Bf5RX55+bE9b/I/z1oaOxmv+NnmWP7SvVc+ucZXV31vUEEHP6I7BwDAwOJ6mscZd3kZZwkxHpeJtntiWYYXSzmoqs31CMXBxNzFfa3Ij/Y8Ic+XGTfLrgDyi/wiv7xcuFbOuUzt5+4afe3wHb3VyPYzWbETSo4OPtcpzg2/+Ah5Qpj5o8Uq8BxzbcGgGGs3k6MTHpbnfoC3FPbRCQ/4UxUFhQHhlRC/KG7JcoHwjtZZvE/PNVD9Nlznm+gxuvPEpZmkLxYeuP2e4TrMeBwgv8gv8ssOMi6jcM/zs4kI46zd8RUmyaSeaHUclgzq9mcJnzTniFDU9iHjfXvvFHTw5AHnAgx4psOMyRD4ubUQjErb5J1h8tGDu9GeF94n2raCjh3FgYRDeYBdhXv07vg5y3ztHfLQUvSznyfeJMz/Zk/v9x383KR9YBQ+ew+IAPlFfpFfnu/VAPekip6nJRxfOTrntt25YJ146dwpf4Y5hCVwk+zLkis8esA1+WeCAgDwvaOM+7pxDThaKQcDTqz1urNlxZ83A9tut208X+fy1hIQg1gk3PZaePeiLT4gv8gv8kt591eHGfd3rYvC5O7BVpnuwULB3UrE+xUnReQaX012blDQwaMHnO4cAACTc+oacJzizKGUgw9LUd5JyuVWrn2PJ6HNPUYg5KM5T9yY8be3dYZ9yKuA/CK/yC/Pd5B5fzppuQdL6Wg2m62Eux+xM9X7TLtL2ixBQQdZDzgAAIoU1jvWInfc1gm3bUDrmeJgguVW2EvGGWL3juO65OQ5T6Rclsk5Yv/v36b7cZ14N29EGpBf5Bf5pUjn3WfleHcPllrokrgU9b3z3rzJ2/EkabMEBR18qzWjCwBgcjyQH791wm0fGGwo5rumMGtC9+4j39+UpTyfOkf0Y5V4+5ZdAeQX+UV+Kc9tY+zEPVg+v/u+vlwXu1cxN+Xq4JO8WYKCDh66sfYXAMDkfNIedxJSD7K2QvxjcTDmOOU+zBabDl06Ru1NwuPGA7c6cmqwFGZAfpFf5JeiWKbWPVjue7B17DLB7sJndZRxf2epzw8KOnioFQIAgEm5dQ04DfHGMmUL3zDby7E07P3WZyGenGXm/ZkAklgcsE3VDt85or+cumnSD+Zriw/IL/KL/FKOy/gwH9qM+wrdJS5itwmen/PCd/Uk4y6Td+cIFHRw70ZCAgCYHDNMpiX19f6pgYbHxc4GqQcUzIycmNiR5TLjLo8sr5Rcyocsa+Gt6pyrLT4gv8gv8ks5LLXC/T3Yqkk7Wea7e7DmrlOHsZZn6OIUCiveZt7tWY6xVQUd3GuFAABgUswwmZ514u2H2SOOqeHut9bC7Nga4f6mZplw24q++rWq/HgA5Bf5RX7heT5appZv5C7wUdTxDHHywfvMuw1dlbJ0slTQwZcDzmA+AIAbUMYtDkKlbuF70t1Ea+P7QBeP8F07Tryb69iimel9r9dN3i4dh7p0JDtXzJt06zw7R9SZU+VTQH6RX+SXYWV7WEt192C5l5tS1PHjXBfuUX8fYNdtrs7HCjoIlkIAADApn8wwmawcM+hWceB48mIc2gy7Msg4be3I9zcVi4TbXgtvlTlVW3xAfpFf5JdhWaaWJ4+N7nWbeZ+KOh4Rl1kZopgja+djBR1cxmoyAACmIdxwtsIwWTke/IelVy6mPsgQf/+LGI/UtLqesHhPf55xl+EhgDzSv5SzZZ0j0lhn2MdSmAH5RX6RXwYRnp05xnnqHmzTDDOx4r6oY+5T+DLusmryL7NyL2vnYwUdtEIAADApZphMWBx0uM6wqzDIMPWuEWdNuvbWD537TjPAvf2pmWH9ibE8SbT5WxN5kuXU8JAn9cxMbfEB+UV+kV/yC/FfCgM/+a6Ge7DrAXYdxhmuptxpJ+S37hVy0NuB3kL2zscKOqZNdw4AgOld/62EYfJyFVq8jbMlJif+3rkGFnynuS/WytmlI3SeORX53qR8qLIW3qS0xQfkF+SXEd4zx+tr+Jmh7onC/dh/u+/x5O7J4rkrFFMcD/QWbpoBmiUo6Ji2VggAANxoMjk5Znzdm1xRR+ZijhtF+gx4j69LR3+0w687p6a2FGZAfpFf5JdsbmLnBfipeD/+acC38Ft3TzaZJW9jAUuI+eGAb2M5RJdUBR3T9dnAHwDApJznbgdImeKNZ84B2MkUdWQu5ghaRzQPvtubJu9goi4d/Vkk3LYHbmm/dzniqy0+IL/IL/JLPkshYMfva7gnuh7wLYSltcISLIuxxjgusRLOi7/F+9ChfBrq2bqCjuky6AIAMB23rv/4Rpt5f6GoYz3WWSMDrd96Ywklnvhu32bc34fu2J8L+17nj/AwJdWg5PUQs8cm6HPi7R+OeYAekF+QXwpybiI0L7TMfB/23fe5e/0RJpmMbdwlduXYNHeFK0MaZKmVewo6ppuUNsIAADAZrQE3Hor3A58z7zasbzq6WSPx99k0+ddvbR3JPPLdDuf6M8diVbTDr5+2+ID8gvxSPxNh2Oc+7KqQ+6IwyWQTiyCqFsZa4sSZobty/JVXhxxbVdAxTa0QAABMRpg9dSYMPGKI4+J+1shZ7bNGYleOEMM/mvyDC7pz8LPvds7ZYW916diLB2710xYfkF+QX+pnIgx7iWNv5wW8lTA+8Vt3jxYKO5a1xTHcW8blVcJYy3Ehb+vfQy9jraBjenTnAACYFjNMeFRsJXs50O7fN3fdOqocQIyDIpv4ewyhdQTzg++2Lh31nEsWTbqCsJuhBx0n9p1LnU8Pas2ZgPyC/FIBE2HoSxiDuy7kvYQJNb/XUtgRO3KEQo7/a4ZfXuWh8xLODwo6piXM0GmFAQBgMqz/ys8MWfATBhf+E1po1rIMSxgECYMh3R9/b4Zr+XmpOwfPEAacbjLuL3TpeC3sO0v5AEX+z8ssakB+QX6p11II6EMsxArH021Bb+u+sOPP2C11Xsobi51PwzhLKBQMHTlOCvtIQ3FOERPlFHRMy5nuHAAAk2H9V34qzq4buiVoaKEZlmG5KnHWSGz3GQY9wsBMKOQ4HPgt+V7znO92OF7bzLs1q3F32uGPhwdu7HUt1F1nbL32fzmU5Bf5RX55gU+6zpBgnKXE71WYlBK6jP5fHH85HaIo/0ERRzi//b84znJUYLzCuOqbUpZiUtAxHbcGVwAAJsX6rzz7WGnKmD0SbuDvZ42shmz9GwY14uBGGIgJ7T7DoMdBATH6aLCR54qdXHJ26TiupdtOCeLgacoCsbUoZ/2+bZr07bW1xQfkF/lFfumXrvak+u6Gc+W7gt9iGH/5rXv9Ny7JsopFFr0XeMRJMm/iRJkwnnFfxHFS+LlhUVKThF98rSbjzIA+AMBkWP+VZws3qN1NdRtv5ksQCifeNndLOISb6PX9K1UxQ3wIHQYuFvF1UOL3ulGkz+7Cd/v3zPtbCPuzpHxwcmkMaBCrDLk0HDdmxwPyi/wiv/Tj1DFNKqHAPi5v8qHwtxqKAN/GVxgf+XK+717hu3E/BrN+5rbCuMqr7jWPr/DPB5WeG4qaTKOgYxp05wAAmBZLMrCTUAAUlzsprc1luPE/ia/7gYVQ2LBpdh9YCL4dXAivw0o+pqXBRl7w3V7Fgq1cx/mXLh1xRho/ph3++KwrP24A+UV+kV+m5DJ2tIOU92NtLOp4W9lbP44/77tofJjQx/auxHODgo5p0J0DAGA6zj1I44WWzd1gYemzJ47ia0oDC/+21Ap7frf/yLi/MKHktbA/LQ7qpiyg88BtAOE83X22YZmjlAVUX9rid/vyGQPyi/wiv+x/jQw5vsPLODnlrWgU712phV7/47MZvZDodecAAJiG0JlNdw5eJBYMOH7K89kSSuz53V43dy1zczmKHX94WspZsDclrfU8QReVHz+A/CK/yC9T8NHxTOZ7snB/dC4SRXtXctceBR3j1+rOAQAwGTqzsZd482qQoRxheZmlMNCDduT7q03K77XZ08NaZdiHgg5AfpFf5JeXMwmaQSjqKNq70pdgUtAx8sRkDTAAgEld+7XCQA9Cl45rYRhc6LjzRpEWfRigS8ehLh2P6+LyqknbDn8tyoN+167i+TulL23xRRuQX+QX+eVFlu6xGPC7HO6RFHWU5V0Nz9IVdIxbKwQAAJOxFAL6EAe3Fs3dzCWGEQZrF9oA07N25PurRcoHJbfdecMM6uFpiw/IL8gvZfocC51hMLGo498iMbgw7vKulsYICjrGS3cOAIDpMChBr2JRx5sm/SwwvndfzHElFPT8vQ55IudssNCloxX576R8UOJaoAweuAHyC/JLmfdZpw4jCrk3C8v+vBOJQc8Hi5qeoyvoGC+JCQBgOjchrv3oXSwoWDSKOnJ/n98o5iChNvP+TmMLeJq/2uGfJNyF2dNl5M+LRlt8QH5BfinNmQ6IFPadXnU//tkYc8ktLDH8urZxFwUd43SpBRoAwGQYlCAZRR1Z3c8QWQsFCb/TIV/k7NJx0Cg6fCj1AxLnj3KYRQ3IL8gv5bjuroNbhw8F3p+FMZfXzV2RAemFe+Eql7dV0DFOEhMAwDTcGJQgtQdFHTeikYxlVsgpd97QpeNvi4TbvlbgWZR1hn0o6ADkF/lFfnnm9ahDh1KFc2z3CkUd56KRTBhzedfFeRmXGK6Ogo7xuTSjCwBgMpZCQA5mjSRVZbtPqv4+b7ofnzLuUpeOv6V8QLIW3qLkmEFt2RVAfpFf5JefO/fMjEru05bdj381OqT27X7MZVXzL6GgY3xaIQAAmITPBiXIKc5iWDRmjfT6PW4qbfdJ9dom70Dhh9lsNp9ywOODkYOEu1g5rIvLmZ8z7EpBB0yc/CK/yC8/FK53FRZT03c8FG2FyTSXotGLj6H7yRjGXBR0jIvuHAAA02BQgkGEAcQ4a+RdY9bIvv7dxfJNre0+qf+73P04y7zbduJhT/lg5FaXnyJdVH5cAfKL/CK/1O7U/RYV3quFJVgWYcygMe7yUqEg5h9jWqZaQce4GNQHAJiGMzP6GVJsVbloLMHyEjfd659dDM+EgqFzSZN3gPDtxLt0LBJu+8LhXKR1hn1YdgWQX+QX+eVxl7UvscC0xTED3Tp2E+5v34WCmLGNmyroGI9z1bIAAJNwM6YKc+oV7j9C68rujx9F49k+NXdrt7p3o4TvsC4dmcxms3CuPEy4i7Ujusjv2KbJU/iooAMmSn6RX+SXHzIBmlF832O3jn81d5NDeFoYm5qPtZBLQcd4tEIAADAJBiUoSiww+kdj1siPhAHXX7tYaflLaUJBR86Bwbfx4dPULBNv3wzqcq0y7ENBB0yX/CK/yC+P+6SInjHpjudwPr6fUGMZlq+dN3F5lTGPtyjoGMnBquU2AMAkXMabOCjKg1kjvzaWYXkoPCgP7T5DV461cFDgdzcMeLWZdzvF5YZSPhC5VChWtBzXbZZdgemSX+QX+eXxe7DWIcIY793ihJp5o7AjuC/kWE7hGbmCjnGQnAAApmEpBJQsFC3EZVjeNdMu7AiDiB+7WMyt20wF39tVk7dLx/FsNltMJb4Z2uEr9Cz7+7VptMUH5Bfkl5x0RWTs3/+pF3ZMqpDjnoKO+n3SnQMAYBI+uu6jFuEBcSzsCB07Pk/oV7/vyDGPAyxQi3bk+xvSIvH21w7f4uX4jBR0wPTIL8gv39PVlMn4prAjTKq5GfGv+2XSTPf636kVctxT0FG3UHXVCgMAwOiFG5czYaA2sWNHGAT8R7z5HusAQ5gh8quOHFT8XV01unSkskx5fWB9+CrkyAuWXYHpkV+QX/J+L6DUe7k/46SaeXM3qSaMT4yla0f4Xf51P2lmyt13FHTU7UzrKACASdAylKqF2RPx5nve/eM/u9enpv7ijtB5JMyCuZ8hsvZJU7ll5v2NvlBxNpuFc95Rwl0479SRA68y5TwFHTAR8gvyy6N0NcV54W5STbivC3kijFfU2DH127EWXXdC7u8CIQoAu900OXECJd+8tsIAVHRdFZZlWTx4HRT8dsNg6bq5W098rcgKAAAAKF3stLOIr6PC3p6xlud8hgo6AHZOfk6cQKkUdAC1X2eFAo+Hr+OB3kpoTxpmvK3jzyuzvQAAAICazWazV81dYcfrBz9zTq65bB6MtxhreebnpqADYOeE58QJlEpBBzDGa695c9cuNAwyvIp/nsf/HH4evmCz9wUbweab15UZIQAAAMAUPDLucv8zvHbt6BE6bmzin9fdK4yvhPGXjeKNl/tFCAAAAChVvOHfNNbyBgAAAOiVcZfy/Y8QAAAAAAAAAACURUEHAAAAAAAAAEBhFHQAAAAAAAAAABRGQQcAAAAAAAAAQGEUdAAAAAAAAAAAFEZBBwAAAAAAAABAYRR0AAAAAAAAAAAURkEHAAAAAAAAAEBhFHQAAAAAAAAAABRGQQcAAAAAAAAAQGEUdAAAAAAAAAAAFEZBBwAAAAAAAABAYX4RAoCd/SoEQKE2QgAAAAAAAOMw2263ogAAAAAAAAAAUBBLrgAAAAAAAAAAFEZBBwAAAAAAAABAYRR0AAAAAAAAAAAURkEHAAAAAAAAAEBhFHQAAAAAAAAAABRGQQcAAAAAAAAAQGEUdAAAAAAAAAAAFEZBBwAAAAAAAABAYRR0AAAAAAAAAAAURkEHAAAAAAAAAEBhFHQAAAAAAAAAABRGQQcAAAAAAAAAQGEUdAAAAAAAAAAAFEZBBwAAAAAAAABAYRR0AAAAAAAAAAAURkEHAAAAAAAAAEBhFHQAAAAAAAAAABRGQQcAAAAAAAAAQGEUdAAAAAAAAAAAFEZBBwAAAAAAAABAYRR0AAAAAAAAAAAURkEHAAAAAAAAAEBhFHQAAAAAAAAAABRGQQcAAAAAAAAAQGEUdAAAAAAAAAAAFEZBBwAAAAAAAABAYRR0AAAAAAAAAAAURkEHAAAAAAAAAEBhFHQAAAAAAAAAABRGQQcAAAAAAAAAQGEUdAAAAAAAAAAAFEZBBwAAAAAAAABAYRR0AAAAAAAAAAAURkEHAAAAAAAAAEBhFHQAAAAAAAAAABRGQQcAAAAAAAAAQGEUdAAAAAAAAAAAFEZBBwAAAAAAAABAYRR0AAAAAAAAAAAURkEHAAAAAAAAAEBhFHQAAAAAAAAAABRGQQcAAAAAAAAAQGEUdAAAAAAAAAAAFEZBBwAAAAAAAABAYRR0AAAAAAAAAAAURkEHAAAAAAAAAEBhFHQAAAAAAAAAABRGQQcAAAAAAAAAQGEUdAAAAAAAAAAAFEZBBwAAAAAAAABAYRR0AAAAAAAAAAAURkEHAAAAAAAAAEBhFHQAAAAAAAAAABRGQQcAAAAAAAD8f3btWAAAAABgkL/1NHYURwAwI3QAAAAAAAAAAMwIHQAAAAAAAAAAM0IHAAAAAAAAAMCM0AEAAAAAAAAAMCN0AAAAAAAAAADMCB0AAAAAAAAAADNCBwAAAAAAAADAjNABAAAAAAAAADAjdAAAAAAAAAAAzAgdAAAAAAAAAAAzQgcAAAAAAAAAwIzQAQAAAAAAAAAwI3QAAAAAAAAAAMwIHQAAAAAAAAAAM0IHAAAAAAAAAMCM0AEAAAAAAAAAMCN0AAAAAAAAAADMCB0AAAAAAAAAADNCBwAAAAAAAADAjNABAAAAAAAAADAjdAAAAAAAAAAAzAgdAAAAAAAAAAAzQgcAAAAAAAAAwIzQAQAAAAAAAAAwI3QAAAAAAAAAAMwIHQAAAAAAAAAAM0IHAAAAAAAAAMCM0AEAAAAAAAAAMCN0AAAAAAAAAADMCB0AAAAAAAAAADNCBwAAAAAAAADAjNABAAAAAAAAADAjdAAAAAAAAAAAzAgdAAAAAAAAAAAzQgcAAAAAAAAAwIzQAQAAAAAAAAAwI3QAAAAAAAAAAMwIHQAAAAAAAAAAM0IHAAAAAAAAAMCM0AEAAAAAAAAAMCN0AAAAAAAAAADMCB0AAAAAAAAAADNCBwAAAAAAAADAjNABAAAAAAAAADAjdAAAAAAAAAAAzAgdAAAAAAAAAAAzQgcAAAAAAAAAwIzQAQAAAAAAAAAwI3QAAAAAAAAAAMwIHQAAAAAAAAAAM0IHAAAAAAAAAMCM0AEAAAAAAAAAMCN0AAAAAAAAAADMCB0AAAAAAAAAADNCBwAAAAAAAADAjNABAAAAAAAAADAjdAAAAAAAAAAAzAgdAAAAAAAAAAAzQgcAAAAAAAAAwIzQAQAAAAAAAAAwI3QAAAAAAAAAAMwIHQAAAAAAAAAAM0IHAAAAAAAAAMCM0AEAAAAAAAAAMCN0AAAAAAAAAADMCB0AAAAAAAAAADNCBwAAAAAAAADAjNABAAAAAAAAADAjdAAAAAAAAAAAzAgdAAAAAAAAAAAzQgcAAAAAAAAAwIzQAQAAAAAAAAAwI3QAAAAAAAAAAMwIHQAAAAAAAAAAM0IHAAAAAAAAAMCM0AEAAAAAAAAAMCN0AAAAAAAAAADMCB0AAAAAAAAAADNCBwAAAAAAAADAjNABAAAAAAAAADAjdAAAAAAAAAAAzAgdAAAAAAAAAAAzQgcAAAAAAAAAwIzQAQAAAAAAAAAwI3QAAAAAAAAAAMwIHQAAAAAAAAAAM0IHAAAAAAAAAMCM0AEAAAAAAAAAMCN0AAAAAAAAAADMCB0AAAAAAAAAADNCBwAAAAAAAADAjNABAAAAAAAAADAjdAAAAAAAAAAAzAgdAAAAAAAAAAAzQgcAAAAAAAAAwIzQAQAAAAAAAAAwI3QAAAAAAAAAAMwIHQAAAAAAAAAAM0IHAAAAAAAAAMCM0AEAAAAAAAAAMCN0AAAAAAAAAADMCB0AAAAAAAAAADNCBwAAAAAAAADAjNABAAAAAAAAADAjdAAAAAAAAAAAzAgdAAAAAAAAAAAzQgcAAAAAAAAAwIzQAQAAAAAAAAAwI3QAAAAAAAAAAMwIHQAAAAAAAAAAM0IHAAAAAAAAAMCM0AEAAAAAAAAAMCN0AAAAAAAAAADMCB0AAAAAAAAAADNCBwAAAAAAAADAjNABAAAAAAAAADAjdAAAAAAAAAAAzAgdAAAAAAAAAAAzQgcAAAAAAAAAwIzQAQAAAAAAAAAwI3QAAAAAAAAAAMwIHQAAAAAAAAAAM0IHAAAAAAAAAMCM0AEAAAAAAAAAMCN0AAAAAAAAAADMCB0AAAAAAAAAADNCBwAAAAAAAADAjNABAAAAAAAAADAjdAAAAAAAAAAAzAgdAAAAAAAAAAAzQgcAAAAAAAAAwIzQAQAAAAAAAAAwI3QAAAAAAAAAAMwIHQAAAAAAAAAAM0IHAAAAAAAAAMCM0AEAAAAAAAAAMCN0AAAAAAAAAADMCB0AAAAAAAAAADNCBwAAAAAAAADAjNABAAAAAAAAADAjdAAAAAAAAAAAzAgdAAAAAAAAAAAzQgcAAAAAAAAAwIzQAQAAAAAAAAAwI3QAAAAAAAAAAMwIHQAAAAAAAAAAM0IHAAAAAAAAAMCM0AEAAAAAAAAAMCN0AAAAAAAAAADMCB0AAAAAAAAAADNCBwAAAAAAAADAjNABAAAAAAAAADAjdAAAAAAAAAAAzAgdAAAAAAAAAAAzCTAA7LUElK64cY4AAAAASUVORK5CYII=;" parent="1" vertex="1"><mxGeometry x="-140" y="1214.09" width="172" height="72.65" as="geometry"/></mxCell><mxCell id="uF7dfcJohwgiFRLAOUHG-2" value="&lt;font style=&quot;font-size: 18px;&quot;&gt;www.nurialiano.es&lt;/font&gt;" style="text;html=1;strokeColor=none;fillColor=none;align=center;verticalAlign=middle;whiteSpace=wrap;rounded=0;" parent="1" vertex="1"><mxGeometry x="-134" y="1266.9199999999998" width="164" height="59" as="geometry"/></mxCell></root></mxGraphModel>